<?xml version="1.0" encoding="UTF-8" standalone="no"?>
<!-- Created with Inkscape (http://www.inkscape.org/) -->

<svg
   xmlns:dc="http://purl.org/dc/elements/1.1/"
   xmlns:cc="http://creativecommons.org/ns#"
   xmlns:rdf="http://www.w3.org/1999/02/22-rdf-syntax-ns#"
   xmlns:svg="http://www.w3.org/2000/svg"
   xmlns="http://www.w3.org/2000/svg"
   xmlns:sodipodi="http://sodipodi.sourceforge.net/DTD/sodipodi-0.dtd"
   xmlns:inkscape="http://www.inkscape.org/namespaces/inkscape"
   width="320"
   height="320"
   id="svg5322"
   version="1.1"
   inkscape:version="0.92.1 r"
   sodipodi:docname="bergbahnen.svg"
   inkscape:export-filename="/home/roman/androiddev/werke/getnoecarddata/bergbahnen.png"
   inkscape:export-xdpi="300"
   inkscape:export-ydpi="300">
  <defs
     id="defs5324" />
  <sodipodi:namedview
     id="base"
     pagecolor="#ffffff"
     bordercolor="#666666"
     borderopacity="1.0"
     inkscape:pageopacity="0"
     inkscape:pageshadow="2"
     inkscape:zoom="0.68017578"
     inkscape:cx="-524.81468"
     inkscape:cy="38.25415"
     inkscape:document-units="px"
     inkscape:current-layer="layer1"
     showgrid="false"
     fit-margin-top="0"
     fit-margin-left="0"
     fit-margin-right="0"
     fit-margin-bottom="0"
     inkscape:window-width="3840"
     inkscape:window-height="2096"
     inkscape:window-x="0"
     inkscape:window-y="27"
     inkscape:window-maximized="1" />
  <metadata
     id="metadata5327">
    <rdf:RDF>
      <cc:Work
         rdf:about="">
        <dc:format>image/svg+xml</dc:format>
        <dc:type
           rdf:resource="http://purl.org/dc/dcmitype/StillImage" />
        <dc:title />
      </cc:Work>
    </rdf:RDF>
  </metadata>
  <g
     inkscape:label="Ebene 1"
     inkscape:groupmode="layer"
     id="layer1"
     transform="translate(167.78529,-54.583211)">
    <rect
       style="opacity:1;fill:#003267;fill-opacity:1;fill-rule:nonzero;stroke:none;stroke-width:1.38666666;stroke-linecap:round;stroke-linejoin:round;stroke-miterlimit:4;stroke-dasharray:none;stroke-opacity:1"
       id="rect4135"
       width="320"
       height="320"
       x="-167.78529"
       y="54.58321"
       ry="0" />
    <g
       id="g5393"
       transform="matrix(0.72255369,0,0,0.72255369,-14.45416,85.075424)"
       style="fill:#ffffff;fill-opacity:1">
      <path
         inkscape:connector-curvature="0"
         d="m -30.336444,36.320212 c -0.586666,-0.195701 -2.349674,-0.637664 -3.917792,-0.982144 -4.022517,-0.883648 -9.126942,-5.479573 -11.710622,-10.544 -1.694144,-3.3208 -2.099552,-5.725248 -1.75904,-10.432778 0.584811,-8.0849926 3.910731,-12.9807793 11.292628,-16.6229019 4.701952,-2.319872 6.545962,-2.6744854 11.101728,-2.1349227 10.816384,1.2810347 17.9264311,9.1736213 17.9264311,19.8994246 0,2.975552 -0.6485014,6.962165 -1.4411094,8.859157 -3.1654177,7.575893 -14.9587087,14.137632 -21.4922237,11.958165 z m 7.116011,-16.17441 c 1.072864,-0.970923 1.950656,-2.872224 1.950656,-4.22511 0,-2.541568 -3.712928,-6.8095679 -5.923947,-6.8095679 -2.328853,0 -6.876053,4.4043839 -6.876053,6.6600959 0,5.299083 6.798677,8.040384 10.849344,4.374582 z M 6.9968891,23.154815 C -1.1051483,19.278474 -5.2697776,12.901546 -5.2697776,4.3719454 c 0,-6.169984 2.3102933,-11.3253227 6.8690133,-15.3279354 7.073248,-6.210379 15.9777603,-6.834368 24.7618673,-1.735168 11.72432,6.8059834 11.992,26.503904 0.46384,34.132874 -5.653344,3.741206 -14.06928,4.46832 -19.8280539,1.713099 z M 20.063556,8.2662174 c 4.963968,-6.314784 -3.547242,-13.3721493 -9.6,-7.96017065 -2.7128323,2.42564265 -2.2977283,6.17783465 0.967606,8.74634665 3.076757,2.4201816 6.345962,2.1224426 8.632394,-0.786176 z M -167.78529,82.40669 c 0,-3.226667 0.26141,-5.866667 0.58092,-5.866667 0.3195,0 13.8795,-3.564298 30.13333,-7.920661 C -120.81722,64.262989 -58.798626,47.667853 0.74804084,31.741271 60.294704,15.81469 119.54259,-0.06101105 132.40999,-3.5380671 c 12.86742,-3.4770453 24.02742,-6.3219093 24.8,-6.3219093 0.98935,0 1.40472,1.7123733 1.40472,5.790976 v 5.790976 l -5.6,1.6142613 c -3.08,0.88784 -26.24,7.1281281 -51.46667,13.8672961 C 76.321371,23.94269 22.321374,38.402829 -18.451959,49.337165 -155.16913,86.001122 -163.7669,88.273357 -165.78,88.273357 c -1.71954,0 -2.00529,-0.835979 -2.00529,-5.866667 z m 86.600751,286.32656 c -0.401962,-3.21718 -0.49632,-6.45718 -0.209674,-7.2 0.343989,-0.89146 41.451754,-8.56464 120.920746,-22.57107 66.219777,-11.67127 122.634407,-21.87645 125.365847,-22.67819 4.65598,-1.36661 6.26497,-2.72502 12.88996,-10.88242 2.26901,-2.79386 5.12911,-2.91584 8.29319,-0.35372 2.34924,1.90229 2.35965,2.0217 0.67974,7.80034 -2.37768,8.17898 -5.76146,12.8081 -11.36404,15.54641 -3.17537,1.552 -15.0813,4.16689 -35.19845,7.73062 -41.020721,7.26676 -67.349735,11.93717 -95.999996,17.02911 -82.871275,14.72846 -121.289099,21.42938 -122.856576,21.42888 -1.368885,-4.4e-4 -1.961824,-1.37648 -2.520747,-5.84996 z M 48.103899,332.27153 c -0.391115,-0.3911 -0.711115,-16.9511 -0.711115,-36.8 0,-23.08833 -0.380149,-36.08888 -1.055275,-36.08888 -0.580394,0 -17.419424,2.89995 -37.4200531,6.44435 -20.0006399,3.54439 -37.2985489,6.14799 -38.4398189,5.78577 -1.141258,-0.36223 -2.78272,-1.73868 -3.64769,-3.05879 -2.278123,-3.47685 -21.841558,-86.07547 -21.813739,-92.09958 0.04683,-10.14916 6.134677,-17.9888 16.022709,-20.63344 7.384491,-1.97505 14.18559,-0.53329 19.305974,4.09267 5.843829,5.27954 6.710752,7.30696 11.5911036,27.10732 3.8489159,14.81118 8.31608694,37.99243 12.100224,47.49403 0.3130346,0.31303 14.0230824,-1.46741 30.4667624,-3.95653 25.930667,-3.92519 30.332768,-4.34543 33.177334,-3.16716 6.370005,2.63854 6.379136,2.7163 6.379136,54.33838 0,25.84247 -0.147414,46.98631 -0.327584,46.98631 -0.180171,0 -5.552758,0.96 -11.939083,2.13333 -13.181643,2.42182 -12.735637,2.37547 -13.688885,1.42222 z m -94.044448,-33.2934 c -3.52,-1.68821 -7.918102,-4.68784 -9.773568,-6.66582 -6.739702,-7.18475 -6.201206,-5.40573 -24.287062,-80.23665 -4.854282,-20.08483 -5.144362,-23.87947 -2.095157,-27.40788 1.131861,-1.30975 1.48576,-11.38554 1.723403,-49.06667 0.295306,-46.824971 0.329312,-47.479877 2.716672,-52.32498 3.136928,-6.366316 9.158464,-12.408549 15.182378,-15.234562 4.296032,-2.015407 7.2832,-2.308204 28.451019,-2.788714 23.086869,-0.524071 23.715371,-0.597418 26.3490452,-3.074943 2.0802027,-1.956869 2.7707627,-3.788801 3.015648,-8 l 0.3176214,-5.461934 5.7692346,-1.676288 5.9384694,-1.676287 -0.507704,9.216468 c -0.3726326,6.764484 -1.6609707,11.369781 -5.724768,15.837455 -5.08288,5.588034 -7.0214187,5.976004 -32.7575576,6.555962 -23.930485,0.539268 -24.109568,0.56074 -28.404106,3.40564 -2.599648,1.722126 -5.223371,4.72537 -6.584342,7.536773 -2.193258,4.530661 -2.26256,6.018261 -2.26256,48.56619 0,42.72456 0.05643,43.92258 2.122294,45.02818 1.167264,0.6247 2.825333,2.49536 3.684618,4.15702 0.859275,1.66166 5.962891,21.44743 11.341376,43.96838 5.378475,22.52095 10.445366,42.25295 11.259755,43.84889 1.880875,3.68592 5.017611,5.3621 9.885973,5.28279 2.111627,-0.0345 15.900075,-2.25 30.64099224,-4.92353 32.30904576,-5.85983 34.65825076,-5.96516 38.88037376,-1.74302 5.115072,5.11506 3.941738,14.92019 -2.177302,18.19501 -3.403786,1.82164 -62.002197,11.75374 -69.340736,11.75286 -5.477034,-6.6e-4 -8.33056,-0.65625 -13.36401,-3.07034 z m 9.6,-149.39744 c -6.069046,-1.03636 -10.40976,-3.60238 -14.830518,-8.76704 -10.317418,-12.05358 -7.228266,-29.81183 6.6,-37.94056 4.203531,-2.47098 6.257995,-2.957113 12.497184,-2.957113 6.23919,0 8.293654,0.486133 12.497184,2.957113 8.42512,4.95258 12.5694829,12.30624 12.5694829,22.30298 0,15.77875 -13.5976959,27.0917 -29.3333329,24.40462 z"
         style="fill:#ffffff;fill-opacity:1;stroke-width:1.06666672"
         id="path5354-3"
         sodipodi:nodetypes="ssssssssssssssssssssssssssssssscssssssssssssssssssssscssssccsssssssssssssssscccsssssssssscssssssssssss" />
    </g>
  </g>
</svg>
