<?xml version="1.0" encoding="UTF-8" standalone="no"?>
<!-- Created with Inkscape (http://www.inkscape.org/) -->

<svg
   xmlns:dc="http://purl.org/dc/elements/1.1/"
   xmlns:cc="http://creativecommons.org/ns#"
   xmlns:rdf="http://www.w3.org/1999/02/22-rdf-syntax-ns#"
   xmlns:svg="http://www.w3.org/2000/svg"
   xmlns="http://www.w3.org/2000/svg"
   xmlns:sodipodi="http://sodipodi.sourceforge.net/DTD/sodipodi-0.dtd"
   xmlns:inkscape="http://www.inkscape.org/namespaces/inkscape"
   width="517.33331"
   height="517.33331"
   id="svg4314"
   version="1.1"
   inkscape:version="0.92.1 r"
   sodipodi:docname="erlebnis_natur.svg"
   inkscape:export-filename="/home/roman/androiddev/werke/getnoecarddata/erlebnis_natur.png"
   inkscape:export-xdpi="185.57001"
   inkscape:export-ydpi="185.57001">
  <defs
     id="defs4316" />
  <sodipodi:namedview
     id="base"
     pagecolor="#006530"
     bordercolor="#666666"
     borderopacity="1.0"
     inkscape:pageopacity="1"
     inkscape:pageshadow="2"
     inkscape:zoom="0.34008789"
     inkscape:cx="284.74818"
     inkscape:cy="-88.095644"
     inkscape:document-units="px"
     inkscape:current-layer="layer1"
     showgrid="false"
     fit-margin-top="0"
     fit-margin-left="0"
     fit-margin-right="0"
     fit-margin-bottom="0"
     inkscape:window-width="3840"
     inkscape:window-height="2096"
     inkscape:window-x="0"
     inkscape:window-y="27"
     inkscape:window-maximized="1" />
  <metadata
     id="metadata4319">
    <rdf:RDF>
      <cc:Work
         rdf:about="">
        <dc:format>image/svg+xml</dc:format>
        <dc:type
           rdf:resource="http://purl.org/dc/dcmitype/StillImage" />
        <dc:title />
      </cc:Work>
    </rdf:RDF>
  </metadata>
  <g
     inkscape:label="Ebene 1"
     inkscape:groupmode="layer"
     id="layer1"
     transform="translate(-131.93333,-227.81012)">
    <rect
       style="opacity:1;fill:#006530;fill-opacity:1;fill-rule:nonzero;stroke:none;stroke-width:1.38666666;stroke-linecap:round;stroke-linejoin:round;stroke-miterlimit:4;stroke-dasharray:none;stroke-opacity:1"
       id="rect4178"
       width="517.33331"
       height="517.33331"
       x="131.93333"
       y="227.81012" />
    <path
       inkscape:connector-curvature="0"
       d="m 360.82845,269.16178 c 0.82295,3.91981 -3.79338,6.87815 -3.54906,10.70551 -2.45605,-0.66564 -4.26915,2.09857 -6.71234,0.94297 -2.88038,-0.91524 -5.70934,-1.88595 -8.96264,-1.67332 -1.83883,0.12943 -3.40761,-0.58242 -4.48775,-1.49765 -0.84869,-0.56394 -2.03171,-0.67488 -1.54307,0.46222 -0.36005,2.86591 -1.35018,6.39743 1.99312,8.56071 1.69738,1.2573 4.42346,2.81042 3.4719,4.71486 -1.093,0.73959 -2.70037,-0.27735 -4.02482,0.12018 -6.33943,0.453 -9.70847,4.89052 -14.47912,7.28493 4.42346,0.55468 8.22969,3.90131 13.19322,3.13398 2.54605,-0.10165 5.1307,-0.52694 7.68961,-0.21263 -0.92584,2.95835 3.0347,5.38973 6.87951,5.51917 4.65492,0.58242 10.23568,-0.42526 12.44741,-3.4021 1.28588,-0.0832 2.27602,0.81354 3.65191,0.69336 1.64595,0.24037 3.53619,0.01 4.64207,-0.97071 0.52721,3.47606 5.11785,6.29573 3.92195,10.00291 0.16717,1.41445 -1.9674,2.16329 -3.69048,1.68254 -2.43034,-0.19414 -4.68064,-0.83203 -6.78951,-1.65482 0.82297,1.77501 3.51048,3.35588 2.3789,5.38974 -3.27903,-1.54389 -7.11096,-2.58856 -10.11994,-4.35432 -0.69439,-0.76732 -1.09302,-1.80274 -2.36605,-2.1448 -1.23444,2.72722 -1.38875,5.77803 -3.76765,8.18168 -4.38488,-2.81042 -10.87861,-1.65483 -15.6364,-0.14792 -1.47877,0.40676 -2.86753,0.95222 -4.33345,1.39597 3.83195,1.72878 5.04069,5.0754 6.67377,7.94129 -7.26527,-0.30508 -13.46326,-3.28191 -19.96985,-5.2603 -2.31461,-0.0925 -6.04368,-0.33281 -5.92796,-2.49609 1.31162,-2.84741 -1.44019,-6.721 -5.8765,-6.52685 -2.54607,-0.52697 -3.57477,-3.11551 -6.36515,-3.19871 -1.71024,0.0646 -1.28589,-1.67331 -2.30174,-2.30196 -3.27903,-3.08777 -9.477,-3.34663 -13.15464,-6.07385 0.16716,1.38673 2.37889,2.30196 1.60736,3.81811 -0.52721,2.58856 -1.09301,5.30653 0.4372,7.78413 0.25717,0.85054 1.24731,2.26499 0.45006,2.84742 -2.91897,0 -5.72221,-1.46068 -8.62831,-0.54544 -4.87351,0.81354 -8.01108,4.03074 -11.68872,6.25875 -3.42047,-3.48531 -11.3287,-3.98453 -15.8293,-1.33127 -1.51735,1.11863 -1.74881,2.85665 -1.09301,4.30809 -2.88038,-0.54544 -7.30384,-0.0555 -7.65104,2.54232 -0.48863,1.67331 0.29577,3.81811 -1.38876,5.13087 -4.96353,0.22188 -7.3167,3.88284 -9.15553,6.66553 -0.5272,0.63789 -1.32447,1.22955 -1.59449,1.92292 3.31759,1.07239 6.51945,2.65326 10.29995,2.65326 -1.89025,2.19103 -1.35017,4.98295 -2.61034,7.29416 4.55204,1.12787 10.09423,1.01693 13.91331,-1.24805 0.51436,2.65326 5.04069,3.45756 5.79937,6.01837 4.16626,-2.45912 8.29398,-6.22175 6.7509,-10.35419 0.27004,-1.02617 2.0317,-1.63633 2.18603,-2.65327 0.36004,-1.16483 0.97726,-2.44063 2.85467,-2.63476 6.26227,-2.31121 7.93393,-8.44978 5.42644,-12.8688 0.46292,-0.97995 2.5975,-0.22187 3.51047,-0.7026 2.58464,-0.48998 3.47191,1.65482 4.17915,2.9491 0.77153,0.36978 0.99013,1.29427 -0.2186,1.27578 -4.43632,1.75651 -4.38489,5.88895 -6.45517,8.83805 -0.68152,1.26654 -1.51733,2.50534 -2.0317,3.81811 4.95067,-1.33126 10.75002,0.86902 15.30208,-1.35898 3.11185,-1.32202 5.96651,-2.9676 9.33555,-3.92906 1.8774,-0.80429 3.34332,-2.01537 4.42346,-3.41134 2.0317,1.05391 5.13068,1.88595 7.1624,0.36979 0.6558,-0.57317 1.98026,-1.22955 2.75179,-0.48073 0.77153,-0.19414 1.41449,-1.18333 2.30174,-0.48073 4.17915,1.17409 8.80833,1.83971 12.84604,3.19872 -0.38576,0.63789 -1.32447,2.23725 -2.41747,1.32201 -2.76466,-2.1448 -7.38101,-1.23882 -10.82718,-0.54544 -5.78651,0.69335 -11.80447,1.73802 -15.99646,4.74258 3.61335,1.1556 5.22069,5.00145 9.72131,4.66864 1.0673,0.45299 -0.09,1.58086 0.56579,2.27422 0.52722,0.76733 0.0772,1.99688 -1.40161,1.68256 -6.5066,0.0555 -11.85589,4.02149 -13.24466,8.37582 -0.37289,0.48997 -0.4372,1.26652 0.61723,0.85976 2.096,0.11093 3.98626,0.7211 5.85079,1.37747 -3.33044,0.50846 -6.53231,-1.41445 -9.79846,-0.42526 2.10885,-2.77345 0.11572,-5.97217 -1.4402,-8.62542 -0.5658,-0.64714 -0.86155,-2.64402 -1.7231,-1.16485 -3.02182,2.53308 -7.94679,4.03998 -9.87562,7.29417 -0.32148,1.02617 -0.7201,2.47762 -2.55892,2.55157 -3.34331,0.48997 -4.52632,3.06003 -5.61933,5.08465 -1.95454,0.14792 -3.97339,-0.48997 -5.64506,0.49922 -2.50748,1.04466 -4.10198,3.09702 -5.06639,5.08464 -1.05443,-0.35129 -2.98326,-1.4052 -1.42734,-2.16328 3.27902,-1.10013 3.6262,-4.51147 1.56879,-6.42514 -1.82597,-2.09857 -3.00899,-4.66863 -5.10498,-6.49912 -2.63608,-1.5254 -6.53232,-0.57318 -8.55117,1.10014 -1.05443,0.62865 -1.77453,1.51616 -2.49462,2.36668 -1.94169,-2.5146 -6.99523,-3.84586 -10.40285,-1.95067 -2.88037,2.20952 -4.95066,4.95523 -7.16238,7.50681 -0.39863,1.15559 -1.38877,2.30195 -3.22758,2.26497 -3.76766,0.99844 -5.6965,4.04923 -8.60261,6.02761 -1.11873,0.96148 -2.45604,1.78426 -3.84481,2.57007 3.93483,1.55313 8.38399,3.81811 13.0775,2.70873 1.56878,-0.3513 3.13756,-1.06315 4.86065,-1.24806 0.61722,3.14326 6.28801,3.84586 9.81134,2.80119 1.13158,-0.10165 2.4046,-1.27579 3.11185,-1.10938 0.75867,1.90444 3.3433,4.58544 6.5966,3.65171 2.82896,-1.08164 5.59363,-2.19101 8.70547,-2.69948 1.91597,-0.35132 3.24044,-1.53465 4.78351,-2.33895 1.41448,-0.13867 1.7231,1.35899 0.30861,1.51615 -2.93183,1.63634 -2.28887,5.13088 0.48864,6.59155 1.40161,0.98921 3.30473,1.359 5.15641,1.70106 -3.76766,1.09089 -7.89535,0.48997 -11.7916,1.08164 -1.74881,-2.08008 -5.9408,-2.18178 -8.6283,-1.22031 -0.33434,-3.17097 -5.11784,-5.23257 -9.30985,-4.54846 -5.18212,0.38828 -10.67287,3.64246 -9.79847,7.74716 0.12859,0.8043 0.91298,1.35899 0.79725,2.21875 -6.08226,0.01 -10.29995,5.34351 -7.68962,9.24483 0.60438,1.18333 2.94471,1.31277 3.42047,2.5978 -3.81908,1.5069 -4.75778,4.77032 -6.0951,7.53453 4.28199,-0.77657 9.39983,0.48997 13.03891,-1.65483 1.45305,1.65483 3.39474,3.32814 3.24044,5.38973 4.282,-0.73959 7.99823,-2.99532 10.05563,-5.82424 1.82598,-1.4237 4.95067,-1.68256 6.4166,-3.43907 1.8774,-1.78424 2.12171,-4.24338 1.23444,-6.34195 3.009,-0.1849 3.3819,-2.95835 6.0694,-3.46681 3.69051,0.0462 5.94081,2.5793 8.67976,4.04923 1.87738,1.29428 4.35915,1.95066 6.86664,2.20951 1.19587,0.14793 0.81011,1.21108 -0.24432,1.27579 -2.53319,1.18334 -5.52932,1.56238 -8.4097,2.16329 1.76166,4.25262 8.04965,7.92281 14.51767,6.85966 1.31161,0.69336 -0.43721,2.02461 -0.46291,2.92136 0.2186,0.67487 -1.4402,1.51615 -0.86155,1.92292 3.44619,0.10166 7.04668,1.11863 10.44141,0.1664 2.04458,0.13868 3.63906,1.35899 5.76079,1.2758 1.99312,0.23112 3.98626,-0.37904 5.8122,-0.65638 2.43035,0.65638 3.67765,2.98607 6.66092,2.7457 4.20485,-0.30507 5.50359,-3.74415 6.99523,-6.10158 0.74581,-1.30352 3.15042,-2.0246 4.71922,-0.9707 1.49162,0.62865 2.64892,1.59936 3.93482,2.43139 -0.92585,0.65638 -2.57179,0.5177 -3.35618,1.13711 1.01585,1.15559 1.3759,2.53307 1.69737,3.88281 -3.81908,-0.28658 -6.77662,1.73803 -9.83704,2.9491 -2.8804,0.38829 -4.68064,-1.71953 -6.44231,-2.9491 0.15431,2.71799 -0.91298,5.42672 -1.83882,8.0615 -0.88727,1.1556 -1.20874,3.15248 -3.21472,3.55925 -1.86453,-0.21263 -2.94469,-1.81198 -5.01496,-1.81198 -1.99314,-0.32357 -4.2563,-0.20338 -5.83794,-1.24805 0,1.28502 1.91597,2.27423 1.11873,3.62397 -0.54007,1.89518 -1.46592,4.30808 0.50149,5.8612 0.97727,1.29428 -0.87441,3.01382 -2.90611,2.57007 -4.82208,0.24036 -8.06251,3.20795 -12.3188,4.55769 2.73893,3.12476 6.85378,6.11083 12.20307,6.33271 -7.61246,2.58854 -16.04789,-1.04466 -23.78894,0.92449 -1.2859,0.67486 -1.92883,0.12942 -1.45306,-0.95222 0.50151,-1.16485 -1.08013,-2.37592 -0.27003,-3.46681 2.05743,0.10165 4.15342,0.89675 6.33942,0.46224 3.54907,-0.47149 3.65194,-3.68869 6.59662,-4.81656 2.86753,-0.94296 6.19798,-2.3944 6.51946,-4.88126 0.66866,-2.15404 3.13756,-4.11393 2.03171,-6.39741 0.37289,-0.81355 1.80023,-0.83203 2.3403,-1.65483 2.01886,-1.88594 4.0377,-3.92904 5.42646,-6.00913 1.04157,-1.36823 -1.08015,-0.84127 -2.26317,-0.82278 -4.50062,0.13866 -9.93991,-0.0925 -13.19321,2.52383 -1.13158,-0.037 -1.06729,-1.21107 -1.58165,-1.75651 -0.28289,-1.58087 1.31162,-3.09702 0.27004,-4.65941 -0.77154,-2.38516 -2.81609,-4.42825 -3.78051,-6.80418 -2.75181,3.06928 -7.74105,5.59312 -7.79249,9.58688 1.26017,-2.46836 2.66179,-5.21408 6.03081,-6.52685 0.28291,2.36668 0.33434,4.91825 -1.13157,7.07229 -1.56878,-0.27734 -3.79337,0.46225 -4.89924,-0.54544 -0.42434,1.34975 2.46891,1.2758 3.98625,1.33127 1.74881,-0.074 4.01198,-0.85054 5.24643,0.46224 2.18602,2.02461 0.82297,4.87201 -0.95155,6.74871 -0.84869,1.03542 -2.27603,2.15404 -4.08913,1.54388 -0.7844,-0.22186 -2.34032,-0.31432 -2.006,0.59167 -0.0257,0.8228 -1.28587,0.60092 -1.89025,0.32358 -4.2177,0.037 -7.49672,-3.38361 -6.15941,-6.30498 0.41149,-1.93217 2.46891,-4.00301 5.33645,-3.98452 0.57865,-0.63789 -1.67166,-0.13866 -2.17315,0.01 -1.63308,0.39754 -3.24045,1.73803 -4.88637,0.6379 -1.76169,-1.0724 -3.72909,-2.05236 -6.17228,-1.91368 -3.53619,-0.12019 -6.80235,-1.10938 -9.4127,-2.70874 -3.62621,-2.00612 -7.63818,-3.70717 -11.54728,-5.4452 -2.14743,-0.90599 -5.01496,-0.70261 -6.93094,0.49923 -1.50449,0.24036 -1.51735,-1.28503 -2.79039,-1.57162 -3.13756,-1.5069 -7.04667,-2.12631 -10.28711,-3.38361 -2.23744,0.0185 -2.41747,-2.1263 -4.41059,-2.62552 -4.11485,-1.47917 -9.14266,-0.61016 -13.19322,-2.1448 -1.40163,2.88438 -0.6558,6.31421 1.47877,8.912 -5.99224,0.6194 -9.95278,4.14168 -14.58197,6.66551 4.96352,2.39441 10.09423,5.63935 16.49794,4.99222 -0.12859,2.23725 3.49762,3.59623 3.02184,5.8797 -1.50449,0.0646 -1.82596,-1.45145 -3.39474,-1.46068 -4.88638,-0.99845 -9.63131,1.55313 -12.58885,4.05847 -1.96742,1.64558 -3.26617,4.32657 -1.46591,6.20328 0.45006,0.67486 2.99613,1.22955 1.42733,1.87669 -2.19886,1.70104 -3.11185,4.50223 -1.62023,6.63779 0.83584,0.55469 2.91898,0.92448 2.3789,1.92292 -4.55204,2.36667 -3.57477,6.96135 -5.87651,10.21552 2.48176,-0.0462 5.01497,-0.11094 7.49673,-0.37904 2.72609,-0.34206 5.4136,-1.02617 7.49674,-2.38516 1.093,2.08009 3.11184,4.70561 2.10886,6.80419 1.18301,-0.0277 1.89026,-1.59011 2.90611,-1.14635 1.15729,2.19101 2.63607,4.39128 5.19499,5.66707 0.96441,1.46069 -1.95455,2.3297 -3.35619,2.681 -3.83194,1.08164 -5.74791,4.02149 -7.08523,6.6008 -0.36006,0.76732 -1.04158,1.79349 -1.6588,2.23725 3.74194,-2.11707 3.9091,-6.79495 8.69261,-8.15393 1.10586,-0.36981 2.30174,-0.2681 2.19888,0.75808 0.0386,1.68255 1.72307,3.00455 3.66477,3.8181 -4.1277,2.02461 -8.28112,5.45444 -13.91331,4.74259 -1.00299,-0.037 -1.02872,-1.13712 -1.95455,-0.60092 -1.15731,0.65639 -2.26317,1.53465 -3.02184,2.35743 4.53918,-1.55312 9.60559,0.29584 14.24764,0.81355 1.62022,0.15716 3.29187,0.27734 4.89924,0 -0.29576,1.91367 0.29576,4.21564 -0.33433,5.8797 4.47489,-1.55313 9.64416,-2.57006 12.96176,-5.22332 2.23744,-0.89674 5.46502,0.14792 7.35528,-1.38672 1.7488,-0.82279 1.91597,-2.60705 3.16329,-3.61473 1.91597,-0.49922 4.26915,-0.6009 5.60647,-1.85821 3.66478,-2.53307 4.83494,-6.74871 2.75181,-10.10458 1.26016,-0.35131 2.31458,0.41601 1.92882,1.32201 -0.54006,2.29271 1.05443,5.33427 4.82208,5.13087 3.85768,-0.037 7.72819,0.1849 11.45728,0.85977 3.7805,0.16641 6.51946,-2.15404 7.34241,-4.60392 0.59152,-1.67332 3.57478,-1.44218 4.69352,-2.84741 1.81308,-1.36823 2.9704,-3.59623 5.70933,-3.98451 1.11872,-0.13868 2.80323,1.06315 1.20874,1.46992 -3.67765,1.49766 -7.50959,3.51303 -7.84393,6.79495 -0.14144,1.16485 0.2829,2.35742 1.17017,3.33738 -3.9734,0.49922 -7.05952,2.73647 -10.99435,3.3836 1.7488,2.32045 3.63906,5.58388 7.71533,5.85197 1.77453,-0.0555 4.06341,-0.6379 5.32358,0.60092 -2.23745,1.57162 -4.29487,3.40209 -3.99911,5.76876 0.25717,1.83973 -0.66866,3.50379 -2.26318,4.909 -1.09299,1.32202 -0.54007,1.46993 1.17017,0.59167 5.11784,-1.59011 12.2288,-1.38672 15.48209,-5.30653 1.28589,-1.4237 2.7518,-3.04155 5.20786,-3.36511 0.45005,1.06315 -1.003,2.3944 0.46292,3.17097 1.45305,1.16485 3.44618,2.36669 3.63906,3.98452 4.26915,-1.31276 6.62234,-5.04768 5.13069,-8.34807 0.0772,-3.07853 4.80923,-4.95523 4.82209,-8.07074 0,-1.27577 -0.69438,-2.38515 -2.10886,-3.08776 2.8161,-0.50847 4.24344,-2.81042 7.34243,-2.87514 6.87951,-1.16484 12.16451,-4.79807 17.41093,-7.91358 4.70636,-2.1263 10.78861,-0.99843 15.68784,-2.79192 2.93183,1.39597 7.05954,1.27578 9.51557,3.17096 1.47879,2.20028 4.88638,3.06928 7.17527,4.79807 0.7201,1.90444 -1.27304,3.68869 -0.92585,5.63011 -0.0772,1.45143 0.1286,2.91211 0.65581,4.31732 -2.80324,-0.23113 -5.18213,-1.59935 -8.06252,-1.71028 0.96442,2.39441 3.43332,4.90899 2.04457,7.45131 -1.95456,2.01537 -5.94082,1.74727 -8.11397,3.66094 -4.96354,3.27268 -5.16926,8.67166 -9.33555,12.37883 -2.00597,2.13555 -3.75479,4.40978 -4.83494,6.79494 -1.67165,2.00612 -5.7222,3.36511 -5.23356,6.07384 0.63008,0.68412 -0.38577,1.28504 -1.20873,0.75809 -4.59064,-1.59013 -10.1071,0.20338 -13.63044,2.56081 -1.87739,0.93373 -2.86753,2.6625 -4.95066,3.31889 -6.7895,0.31432 -13.21895,-2.01537 -18.27248,-5.12163 4.10198,-1.98764 4.60347,-6.10159 7.3167,-8.85654 -5.79936,1.51614 -12.65313,0.38828 -17.83527,3.03229 -1.46591,-2.69023 -1.95455,-6.01837 -5.72221,-7.50678 -2.34031,-0.5547 -4.25629,0.85053 -5.99223,1.73802 -1.89027,-0.0739 -3.21472,-1.46993 -5.23357,-1.30352 -1.9417,-0.0646 -3.47191,1.24805 -5.32359,1.00769 -1.55591,-0.86901 -3.33044,-1.70105 -5.5036,-1.38673 -3.4719,0.17566 -6.71232,1.55313 -10.24853,1.24806 2.37889,2.23725 -1.24731,6.42514 3.24044,7.58999 2.22459,0.49922 4.83494,0.85052 5.81221,2.54233 0.65581,0.52695 2.97041,1.0724 1.76168,1.8767 -1.41449,0.61016 -1.87741,2.08009 -2.85468,3.14324 -2.04456,-2.8474 -6.10797,-5.86123 -10.95577,-5.06617 -2.9704,0.61016 -4.70635,2.87514 -4.77065,5.0107 -1.92883,0.45299 -3.38189,-1.52539 -1.67166,-2.35742 2.01885,-1.48843 5.195,-2.56083 5.82508,-4.75185 1.38877,-2.44988 3.66479,-5.62085 1.24732,-8.043 -1.50449,-1.21106 -3.8191,-1.76575 -5.81222,-2.51458 2.6875,-1.61785 1.4659,-4.94599 -1.46592,-5.93517 -4.08912,-2.18178 -9.57987,-3.31889 -14.62055,-2.30196 -1.94169,0.85052 -2.13458,2.62552 -3.06041,3.92904 -3.17616,-1.30352 -7.22671,-0.0184 -9.6056,1.64557 -4.69349,-0.27733 -7.88248,2.60705 -10.1328,5.10315 -0.46291,0.89674 -1.73595,1.45143 -2.22458,2.24648 2.37889,0.48074 4.1277,2.0616 6.48087,2.70874 -3.65192,2.92136 -4.92495,7.16475 -7.8825,10.1878 1.87741,-0.15717 3.72908,-1.03543 5.60648,-0.30508 4.61634,0.79505 10.1328,0.33281 13.69472,-1.94142 2.79037,2.88438 8.17825,3.09701 12.70458,3.2172 -1.54307,2.93061 -1.64595,6.36043 -4.20486,8.91201 -2.80324,1.00769 -6.08225,1.38672 -8.28112,3.23569 -1.32447,0.869 -2.50749,1.86744 -3.72909,2.83815 2.25032,0.38829 4.87353,0.0277 6.67379,1.19259 3.13755,1.17408 6.99522,1.34975 10.1585,0.18488 1.73595,-0.48072 3.60049,-0.84127 5.47789,-0.59167 -2.4432,2.06161 -2.43034,4.83505 -3.45904,7.34965 4.60348,-0.51771 9.57987,-1.5439 12.39596,-4.17866 1.74882,-0.71185 4.29487,-0.64714 5.27216,-2.13556 0.69437,-0.92448 1.0287,-2.5793 3.02182,-2.17254 4.52633,-0.037 7.03383,-3.41133 8.3197,-6.01836 0.57866,-0.79506 0.50151,-2.33895 1.92885,-2.45913 1.78738,1.22956 4.64205,1.68255 6.85379,0.78581 1.36304,-0.22187 2.7775,0.15717 3.51046,0.9707 -3.35616,1.23881 -4.91209,3.84585 -6.0694,6.25874 -2.27602,0.12943 -4.02482,1.27579 -5.42644,2.4129 -2.00599,0.46224 -4.34631,0.037 -6.14655,1.03542 -3.78051,1.56238 -6.42945,4.25262 -10.4157,5.60237 -0.88726,0.43451 -1.78738,0.9892 -2.58464,1.54389 5.10499,1.02617 8.30685,5.0754 13.97762,4.88125 1.33732,0.59167 0.51435,2.10782 1.68451,2.90288 0.57864,0.85977 1.74881,1.27578 2.80324,1.75652 -3.48476,0.49922 -5.51646,-3.12475 -9.00122,-2.08933 -1.80026,0.55469 -2.5975,2.38516 -4.56491,2.71798 -1.63308,-0.24038 -3.51047,-1.08165 -4.97638,-0.0277 -3.24045,1.74728 -4.28202,4.83504 -7.45817,6.721 0.69439,-3.03231 1.91597,-6.91513 -1.69736,-9.13389 2.91896,-1.77501 3.58761,-5.84272 -0.0386,-7.34962 -3.75481,-1.04468 -6.49374,-4.27112 -10.85291,-3.87358 -3.39475,0.50846 -4.50061,3.21719 -6.63519,4.77031 -5.32357,-0.34206 -11.49584,1.98764 -11.4187,6.17554 0.09,1.81198 0.0514,4.11394 -2.5589,4.909 -5.13071,3.55002 -4.28201,9.16163 -6.67377,13.68234 2.82896,-0.56393 5.00211,-2.32969 8.08823,-2.23725 2.49463,-0.50847 5.14356,-0.62865 7.62533,-0.12018 1.91597,0.0277 4.79637,-0.74883 5.96652,0.70261 0.0643,0.89674 0.7844,1.35898 1.77453,1.71029 1.51735,1.17409 1.33732,2.99532 1.11873,4.52995 3.65192,-0.68411 6.03082,-3.22643 8.06251,-5.39896 0.73296,-1.36824 2.43034,-2.05236 4.0377,-2.81967 0.86154,-0.33281 1.95456,-2.03386 2.52034,-1.46069 0.41147,1.27579 2.3789,2.1448 2.94469,3.17098 -1.11873,1.4237 -1.89026,3.11551 -1.46592,4.71485 -2.90611,1.83048 -1.19588,4.96447 -2.18601,7.36813 3.93482,-0.85053 7.99823,-1.75653 10.99434,-3.92905 3.29188,1.40521 5.18214,4.03073 6.0694,6.63778 3.4076,-1.59012 6.58375,-3.87359 7.80534,-6.69326 2.62322,-1.78424 7.26527,-1.87669 8.26827,-4.71485 1.56879,-2.64402 3.51047,-5.86121 1.68452,-8.67164 -1.29875,-0.9892 -2.46891,-2.40365 -1.6588,-3.73492 -0.19288,-0.62864 -0.11574,-1.98763 1.19588,-1.48841 4.19199,0.58243 8.17825,-1.19258 12.17736,-1.84896 2.50749,-1.02618 2.096,-4.01226 5.1307,-4.60392 3.56191,-1.00769 7.9725,0 11.02007,-1.98763 1.8388,-0.97071 3.30472,-2.21877 4.73207,-3.48529 -3.58764,-0.14793 -6.26229,-2.28348 -9.69561,-2.70875 -1.7488,-0.66561 -1.62022,-2.35742 -2.67464,-3.3836 0.0257,-1.82122 2.8804,-2.53307 4.26914,-3.77189 2.17315,-1.61784 5.25929,-2.90288 8.46115,-2.11707 3.39476,0.60092 6.59662,1.75653 9.84991,2.49611 2.82895,2.08933 3.75479,5.19559 7.20097,6.85966 -2.49461,1.5254 -6.24941,1.82123 -7.98536,4.01225 -2.43034,1.9599 -4.1277,4.34506 -3.96053,7.01682 -0.5658,2.71797 -3.56191,4.87202 -4.69351,7.37736 -2.25029,3.06004 -4.20485,6.63778 -8.53829,8.42204 -2.48177,0.3513 -5.25928,0.0184 -7.32957,1.31276 -1.98027,1.10014 -2.76466,2.93061 -2.27602,4.66864 -3.65192,-0.52696 -8.20397,1.17409 -7.43244,4.15091 0.72011,1.66407 1.69738,3.55927 0.19289,5.14937 -0.90012,1.48842 -1.2216,4.01226 1.50449,4.54846 1.54305,0.41601 0.10282,1.36824 -0.60437,1.7935 -2.93182,2.7457 -2.64893,6.44362 -3.49762,9.75327 2.94469,-0.55468 5.16927,-2.63477 8.43544,-2.30196 2.6875,-0.037 5.04068,-1.10937 6.55802,-2.63477 1.68452,-0.90599 3.51049,0.25885 4.02485,1.4422 0.60435,0.96145 1.82595,2.95833 3.66477,2.05234 4.33345,-2.1263 2.73895,-6.85965 6.51944,-9.20784 1.02873,-0.69336 0.90013,1.01694 1.81312,1.30352 3.06042,2.27423 8.02395,1.88595 11.90732,2.8659 0.52722,-1.08164 0.21861,-2.62553 0.4115,-3.87358 0.11572,-3.04155 -1.18302,-6.30496 -4.74494,-8.07073 -2.27602,-1.29428 -0.09,-3.51304 -1.24731,-5.1771 -1.18302,-1.91367 -4.56491,-0.76732 -6.77664,-1.14636 0.25719,-0.56393 1.05443,-1.59011 0.78441,-2.45912 -0.20575,-1.2388 -1.00301,-2.52384 0.24431,-3.63321 2.04455,-3.10626 3.80623,-6.55458 2.71323,-10.07685 -0.75868,-3.55927 -1.92884,-7.59001 1.15729,-10.75173 2.6618,-3.30965 7.36814,-6.55458 13.1032,-6.01838 1.20874,0.14792 2.25032,0.52696 3.21472,1.08164 -5.95365,0.61016 -9.77273,4.52996 -11.23866,8.36657 -0.83583,0.67486 -0.16716,0.96145 0.82297,0.7026 1.85168,-0.13867 3.56191,0.47148 5.24642,0.86902 -4.95066,2.60704 -4.79636,7.46981 -6.06939,11.38037 -0.63008,2.25573 -2.27602,4.49298 -4.86066,5.75028 1.96741,1.09089 2.31461,3.21719 4.52633,4.16941 -1.47876,3.17098 -0.28289,7.51604 4.48775,8.7641 6.24943,1.8582 13.03892,0.34204 19.36548,-0.33281 1.11873,-0.0739 -0.15431,-1.11864 -0.86154,-1.0077 -4.05055,-1.19259 -4.44917,-4.86278 -6.63519,-7.28492 -0.29575,-0.78581 -2.13456,-1.49766 -1.73593,-2.03386 2.13456,-0.93373 3.57476,-2.46837 5.58073,-3.55002 -6.0951,-0.30506 -10.96863,-3.87357 -17.26947,-2.97682 -1.13157,0.57318 -1.28589,-0.52695 -0.55293,-0.94297 2.10885,-3.37436 1.2473,-7.95979 5.64504,-10.38194 1.11873,-0.59166 3.07328,-0.29583 3.39475,-1.41446 1.45307,-1.51615 6.01796,-0.47149 4.89923,1.54389 -0.91297,3.65171 4.56491,6.15705 4.29487,9.72555 1.95456,-0.22187 3.81908,-1.09089 5.50361,-1.86745 3.03471,-1.62709 4.38488,-4.2711 4.6292,-6.87815 0.28289,-1.29427 2.45604,-2.96759 4.23057,-1.8767 1.14444,0.33281 1.95456,2.20951 2.71323,1.65483 1.13158,0.74883 1.86453,1.99687 3.33045,2.65326 1.44021,0.74884 2.09599,2.30197 1.04157,3.36511 -0.8101,1.6271 -1.17016,4.0215 0.70724,5.2603 4.4106,1.50691 5.7222,5.33426 9.42556,7.34039 1.92884,-0.0739 3.80624,0.6379 4.05055,2.10783 3.94768,7.59924 2.21173,15.92882 2.50749,23.87936 -0.09,4.09546 1.46591,8.09847 1.74881,12.16619 -0.0386,3.90132 -4.11485,6.77645 -7.49674,9.50367 -3.25329,2.65326 -7.7539,4.21563 -11.50869,6.29573 -2.8804,1.68256 -4.78352,4.31733 -3.61334,7.06304 1.31158,3.96602 4.5906,7.52528 4.39773,11.75941 0.3729,1.87669 0.14144,3.98452 1.17015,5.70405 2.13458,1.36824 4.44918,3.0508 4.16628,5.30653 0.64293,5.04767 -4.55205,9.41122 -10.72432,11.28793 -6.99522,2.37591 -14.31192,3.88282 -21.39718,6.16629 -9.78561,2.88438 -19.35263,6.37892 -27.85236,10.88115 -3.15042,1.21107 -6.84091,1.88594 -9.5027,3.50379 -3.00899,1.41445 -7.48388,2.33893 -8.40972,5.17711 -0.11574,0.66562 0.14145,1.26652 1.02871,0.67487 4.42347,-1.07242 9.52843,0.59165 13.69471,-1.2758 7.27814,-2.10782 15.4821,-2.27422 23.146,-1.15561 3.16329,0.12944 5.90223,1.71954 9.12982,1.10014 5.06639,-0.85976 10.31282,-1.09089 15.25062,-2.36668 6.6352,-1.45143 13.27039,-3.45755 20.29133,-3.4853 1.35019,0.22188 2.84182,-0.11093 4.02483,-0.24035 2.28889,1.30352 5.82509,1.27578 8.34543,0.40676 1.01585,-0.71185 2.57177,0.0739 3.83195,-0.40676 4.44918,-0.76733 8.74403,-2.02462 13.33466,-2.26498 5.09211,-0.43451 10.05564,0.63789 14.81344,1.79349 3.52332,0.77656 7.18811,0.23112 10.63429,-0.45299 5.28501,-0.59167 10.36427,1.12786 15.36638,1.89518 1.71023,0.453 2.75181,1.71029 4.60348,1.89519 4.59062,0.90599 9.42557,0.37904 14.08049,1.02618 8.89834,0.73958 17.87384,1.10937 26.81077,0.54544 4.79636,-0.19414 9.64417,0.0739 14.42767,-0.14792 1.28589,-0.0646 3.81909,-0.85976 2.66179,-1.97839 -3.15044,-2.23725 -7.65104,-3.13399 -11.32868,-4.86277 -6.60947,-2.25574 -14.90345,-2.53309 -20.16273,-6.58231 -3.21472,-1.64557 -7.70249,-1.30352 -10.81433,-3.2172 -3.30472,-1.10013 -6.36515,-2.59778 -9.52842,-3.79962 -3.51049,-0.73035 -7.47102,-1.83047 -9.21983,-4.38206 -1.89026,-2.36666 -4.4749,-4.39128 -7.6639,-5.88893 -2.0317,-0.95223 -3.39474,-2.56082 -3.13758,-4.33583 -1.18301,-4.20638 -4.53917,-7.87658 -6.08225,-11.95356 -1.60736,-3.55 -1.54306,-7.58074 1.17017,-10.81643 3.51047,-5.12163 7.85678,-10.03988 9.43842,-15.67921 1.51734,-4.34507 0.4372,-8.84729 -1.23445,-13.07218 -1.40162,-3.81811 -1.99314,-7.83037 -0.79726,-11.72243 1.02871,-5.56538 -0.11572,-11.21396 -2.45603,-16.53899 -1.89028,-6.08308 -2.48177,-12.45277 -1.35019,-18.63755 1.86453,-3.34663 7.38099,-5.16786 8.21682,-8.82881 -0.59151,-0.83203 0.0386,-1.8582 1.42734,-1.79349 5.27214,-1.37748 7.47101,-6.07384 5.99225,-9.78101 2.95753,0.93373 6.66089,-0.2681 9.1941,1.46993 5.09211,1.36822 10.57,-0.12944 14.89058,-1.9784 0.68153,-0.52696 2.18601,-0.93373 2.22458,0.10165 -0.33431,1.03541 -2.53319,0.42526 -3.54904,0.97995 -4.44918,1.09089 -6.21085,4.94597 -5.46502,8.1262 0.48864,2.89363 2.8418,6.15704 7.08524,6.80418 1.91597,0.48073 3.71622,-0.35131 5.42645,-0.65638 1.19588,0.58242 -0.0514,1.9599 0.87441,2.7642 0.86154,1.47917 3.00897,2.39442 5.23356,2.31121 -3.06041,1.61784 -5.04069,4.96447 -2.82896,7.52528 1.60738,0.83204 -1.06728,1.11862 -1.65878,1.7935 -2.72609,1.71953 -4.39775,4.59467 -3.08613,7.15548 -0.2829,1.63633 -3.07329,1.85821 -3.72908,3.32814 -0.57866,0.71185 -1.69739,2.18177 -1.5045,2.52385 2.64893,-0.78583 6.84093,0.34204 6.10798,2.75494 -0.21861,1.58086 -0.66866,3.20796 -1.44021,4.66864 5.83795,-0.74883 12.2931,-1.43295 16.27935,-4.909 0.3472,-1.10013 2.10887,-0.83203 2.79037,-0.10166 3.35618,1.70106 7.35531,2.53309 10.73719,4.19716 0.50149,-3.67944 3.66479,-7.38663 1.58164,-11.08455 -1.40162,-0.75808 -0.10283,-1.79349 1.20875,-1.89519 2.21171,-1.08164 3.24042,-2.98607 3.279,-4.909 0.88728,2.6995 4.7578,3.97528 6.12082,6.47138 0.41149,0.44375 1.37591,1.90443 1.9417,1.02617 2.08314,-3.42983 5.77364,-6.36043 6.98238,-10.01214 4.14055,2.0616 9.99135,0.64715 12.96175,-1.92291 2.08313,-1.63633 3.26616,-4.03074 2.82896,-6.31421 0.32147,-1.39598 2.52034,-2.05236 2.25031,-3.63323 0.32146,-3.75338 -2.45604,-7.56225 -6.09512,-9.89194 -1.5945,-0.97995 -3.71623,-0.60092 -5.34929,-0.12943 -1.29874,0.20338 -1.73596,-0.7211 -1.51735,-1.44219 -0.54008,-1.95067 -3.96054,-2.05236 -6.08225,-1.40523 -1.89026,0.41603 -3.75481,1.04467 -5.63219,1.6271 0.0129,-2.30196 -0.39862,-4.75183 -2.67466,-6.45289 3.1633,-0.90598 6.50661,-2.46836 9.9785,-1.78424 1.31162,1.22032 3.00897,2.6625 5.38787,2.19102 1.26018,-0.453 2.95756,-0.29584 2.9061,0.97995 0.92586,2.12631 2.84183,4.76108 6.33945,4.68712 2.28888,-0.3513 3.93482,-1.89519 6.40372,-1.76575 0.9387,0.0555 4.41059,-1.359 3.04756,-0.24962 -3.8191,2.5793 -3.54904,8.01526 0.9387,10.03063 0.84869,0.30508 1.94168,0.42526 2.94468,0.29583 -0.10283,1.68256 -0.27004,4.36355 2.55892,4.82579 2.73894,-0.22188 5.40074,-1.00768 8.17825,-0.56393 3.02183,0.12942 6.51947,-0.78581 7.04667,-3.11549 0.42435,-1.04467 0.33433,-2.15406 0.60436,-3.22646 2.05744,0.23113 3.84482,-2.09857 5.69649,-0.6009 2.67465,1.21107 5.70935,2.44063 6.69949,4.74259 -1.49164,1.41445 -2.91897,3.31889 -1.80025,5.03843 1.35018,2.08933 4.57776,3.44832 5.07927,5.80574 0.60436,1.35899 3.15043,1.69181 3.25329,3.18022 0.59151,2.11706 3.06041,3.99375 6.24943,3.64246 4.53918,-0.13868 8.9112,-1.7935 12.06163,-4.09546 1.77451,-1.30352 2.19887,-3.18021 2.04455,-4.91824 1.02872,-1.92292 4.1277,-3.58699 2.97041,-5.94443 -0.74581,-2.21875 -1.36305,-4.53921 -2.30174,-6.69324 -1.69737,-1.30352 -5.58075,0.0646 -6.4423,-2.02462 -2.58464,-2.5793 -7.72818,-2.24649 -11.61157,-1.73803 -2.41749,0.24037 -4.35917,-1.26654 -4.64207,-2.79192 -0.5272,-0.76732 -1.17016,-2.45913 0.42435,-2.70874 0.96442,0.5362 0.37291,1.76576 1.62021,2.21876 2.80325,1.8582 7.22671,1.13711 10.36427,0.19414 1.86454,0.57317 3.29187,-1.09088 4.55205,-1.7935 1.23445,-0.7211 1.69738,-2.1263 2.57178,-2.81042 3.81908,0.37904 7.04668,-2.21876 6.91807,-4.88127 0.5658,-3.73491 -0.64295,-7.93205 -4.02481,-10.76097 -1.47879,-0.8875 -3.67767,-0.42526 -5.23358,-0.40677 -1.65881,-1.7103 -4.23057,-2.83816 -7.20097,-2.65326 -4.05056,-0.0646 -8.20398,0.44374 -11.98449,1.43294 -1.35018,0.56394 -1.64593,1.7103 -2.03171,2.60704 -1.63307,0.5547 -3.45902,-0.32356 -5.19499,-0.0739 -8.44828,0.0277 -16.42079,3.33737 -24.95909,2.32045 1.42733,-2.99532 -1.67166,-7.15549 -6.42944,-6.6008 -1.31162,0.4345 -2.04457,-0.453 -1.78739,-1.25729 -2.03171,-2.29272 -6.41659,-2.04311 -9.78562,-2.36668 -4.64206,-0.22188 -10.33854,0 -13.15464,2.88438 -1.42733,1.38673 -0.78439,3.41134 1.01586,4.33582 0.79725,0.39753 0.64294,1.55313 -0.64295,1.24805 -8.44829,-0.80429 -16.858,2.24649 -25.31915,0.86902 -2.31461,-0.52696 -5.60648,-0.84128 -6.5709,-2.66252 -0.2186,-1.40521 1.78739,-2.3944 2.71323,-3.51302 1.10586,-1.00768 2.31461,-1.95991 3.4719,-2.93061 -6.55803,0.85052 -13.09035,-2.50534 -19.51979,-0.65638 -1.17017,0.7211 -1.5302,-0.56394 -1.41447,-1.18334 -0.81012,-2.07085 -3.69051,-3.63322 -6.68663,-4.06772 3.07327,-3.33739 1.38876,-8.29261 5.83794,-10.98284 1.18302,-0.46225 -2.30174,0.037 -2.95754,0.2311 -4.61636,1.01694 -9.06553,2.75497 -12.92319,4.91826 -1.67165,1.11862 -2.79037,3.32813 -5.55503,2.81966 -4.38489,-0.14791 -7.36814,2.57006 -10.02994,4.6409 -1.77452,1.38673 -2.88039,3.21721 -3.5362,5.04768 -0.48863,0.76733 -1.00299,2.21875 -2.34031,2.15404 -0.64294,-0.8043 0.97727,-1.55312 0.86155,-2.43138 1.42733,-4.22489 0.70723,-8.70863 2.79038,-12.84106 0.34719,-1.49766 1.20873,-2.96758 3.18899,-3.66096 2.80323,-1.53462 5.42647,-3.33736 8.67976,-4.37279 0.81011,1.18334 0.39863,2.681 0.27004,3.92906 4.02482,-0.21264 6.00509,-3.23569 8.12681,-5.20485 0.86155,-0.96146 1.46591,-2.67175 3.34332,-2.41288 3.74193,0.97995 7.43243,2.06159 11.05863,3.23568 1.50449,-3.22644 0.91298,-6.67477 0.30862,-9.97517 4.9121,-0.21263 10.24852,0.37904 13.72043,3.1155 2.97041,2.03388 6.15941,3.88284 10.01709,4.77034 5.285,1.55313 10.95575,2.62552 16.5108,3.76263 -0.78439,1.46069 -4.08912,1.9969 -3.51047,3.77189 1.87738,2.86589 5.27213,5.86121 10.0685,5.87971 2.12171,0.24961 4.53918,-0.7211 6.46802,0.0184 2.26316,1.90443 2.31459,4.79805 5.47789,6.21252 2.01884,0.91523 4.33344,0.037 5.58074,-1.13713 1.17017,-0.3513 1.26017,1.05393 2.31461,1.23882 2.17316,1.11863 5.87652,0.97995 7.0981,2.93061 0.0386,0.58242 -0.18002,1.13711 0.83584,0.75808 4.01198,0.01 4.51346,3.68868 7.61246,4.77033 0.97727,0.0555 0.74581,-1.34975 1.55592,-1.75653 0.91298,-0.93373 1.82595,-2.32045 3.07327,-2.79193 4.64207,1.61784 11.36725,1.0724 14.44053,-2.0616 -0.09,-0.41601 -1.54306,-0.12942 -2.00598,-0.57318 -3.78051,-1.64558 -2.62321,-5.96291 -6.93093,-7.31266 2.77751,-1.61783 6.31369,-2.62551 8.66688,-4.57617 -1.8131,-0.49922 -4.37202,0.73957 -5.64505,-0.68413 -3.099,-1.65481 -7.02095,-3.62395 -11.04579,-2.54232 -0.99012,-0.53619 0.57866,-1.52539 1.05443,-2.08932 2.68752,-1.73803 6.73806,-0.95222 10.05566,-0.93373 3.63905,0.34206 7.53531,0.45299 10.93004,1.3405 0.64295,1.72878 1.32448,3.58699 0.11573,5.28803 -1.1573,1.67331 -1.38876,3.68868 0.1543,5.2788 1.54309,2.03385 3.72909,3.88281 4.86067,6.04611 3.26616,-1.47917 6.32656,-3.73491 6.57089,-6.6008 -0.39864,-1.02618 0.81011,-1.83973 2.21173,-1.69181 2.70037,-0.50847 5.87651,0.21263 6.78949,2.2465 2.12172,2.83815 6.59661,4.33581 10.99435,4.12318 0.0643,-3.75339 0.18002,-8.01526 -3.43332,-11.02906 3.24043,-2.17254 7.99823,0.71184 11.45727,-1.13712 2.82895,-1.13711 4.77064,-3.0323 6.75092,-4.82579 -4.89924,0.61015 -8.294,-3.27268 -13.19323,-2.87514 -0.84868,-0.55469 1.02871,-1.07239 1.54306,-1.37748 2.99613,-0.98919 5.77365,-2.75497 6.10798,-5.23257 0.84869,-2.54233 6.13369,-3.08777 6.2237,-5.74103 -0.59151,-1.6086 -3.3433,-2.12632 -3.88338,-3.74415 -0.84869,-1.09089 -1.69737,-2.07085 -3.08614,-2.70874 3.84481,-1.9599 5.97939,-6.28647 2.73895,-9.16162 -0.92584,-0.75808 -2.58464,-0.56394 -3.61335,0.0555 2.25031,-2.81967 -0.84868,-6.19403 -4.78351,-6.93361 -2.67465,-0.99845 -4.73206,-3.59624 -8.13967,-2.65326 -3.98626,0.98918 -5.52932,4.57617 -4.33344,7.34038 -3.4462,-1.26654 -7.291,1.23881 -10.64717,-0.24037 -3.94768,-1.10013 -7.67674,-2.53307 -11.74016,-3.25417 -1.95455,-1.16485 -2.49461,-3.42058 -4.56492,-4.36356 -1.23444,-0.84127 -2.91895,-0.21263 -4.33344,-0.2681 -0.7458,-0.6841 0.60438,-1.61784 -0.21859,-2.37591 -0.75866,-1.61785 -3.22757,-2.33893 -5.24642,-3.15248 2.28888,-0.52697 2.0317,-2.55157 3.6262,-3.60548 2.76466,-0.28659 5.5036,0.81354 8.28113,0.16641 5.6579,-0.68413 10.26138,-3.6055 13.38609,-6.94287 -5.18212,0.0832 -9.70846,-1.99689 -13.91331,-3.95679 2.90612,-2.15404 7.40671,-0.68411 11.0072,-1.43294 2.90611,2.20026 5.86366,4.37279 8.93693,6.44363 2.45605,-2.37591 4.64207,-5.05691 4.41061,-8.12619 5.90222,0.16641 10.38996,-2.69024 14.68484,-5.11237 1.29876,-0.36056 1.05443,-0.66563 -0.33432,-0.71186 -3.06043,-0.25885 -6.42945,0.59167 -9.2327,-0.54544 -1.31159,-0.01 0.74583,-1.58087 -0.93868,-1.02618 -0.75869,0.51771 -1.35019,1.43294 -2.67466,1.16484 0.54007,-0.85051 2.88039,-1.47917 2.07027,-2.55156 -0.63007,0.48073 -1.81309,0.82278 -1.13156,-0.12943 1.37589,-1.34051 3.36901,0.22187 4.56489,0.91524 0.48864,0.38828 2.91896,1.46992 1.81311,0.39752 -1.36305,-1.6086 -4.95067,-2.08008 -5.96653,-3.89208 0.8487,-1.24804 3.43333,-1.06314 4.44918,-2.24649 1.49164,-1.10937 2.55892,-2.51458 3.35617,-3.95678 -4.56491,-0.49922 -9.24555,-2.87514 -13.86188,-1.57162 -1.68451,0.39754 -1.13158,-1.55312 -2.39175,-1.89518 -2.50749,-1.67331 -6.23656,-2.35744 -9.2584,-3.57775 -3.54906,-0.5362 -6.33944,1.73803 -7.80535,3.80887 -0.09,0.94296 -1.35018,1.71029 -2.71323,1.14636 -2.64893,-0.21263 -5.36215,1.12787 -5.33643,3.16172 -0.36004,1.7935 -1.05443,3.56851 -2.2503,5.13087 -0.25719,1.48842 -1.44021,2.70875 -3.33046,3.34664 -2.89323,1.51615 -5.63219,3.16173 -9.01408,4.16017 -2.36602,-0.30508 -5.97938,-1.15561 -7.45816,0.7026 -0.48863,1.31277 -1.55592,2.98608 -3.92195,2.71797 -4.29486,0.38829 -9.01408,2.15405 -13.15465,0.56394 -1.36304,-0.54544 0.0643,-1.45143 0.97728,-1.65483 2.23745,-1.322 1.14445,-3.79036 -0.77152,-4.92747 -2.53321,-1.88596 -5.47789,-3.587 -8.04967,-5.41749 -2.98327,-0.87825 -5.38788,1.34052 -7.14955,2.70875 -2.6232,1.34975 -6.1594,-0.22187 -9.09122,0.59167 -1.23446,-0.10165 -0.47579,-1.45145 -1.27305,-1.9784 -1.04157,-1.62709 -3.81908,-2.52383 -4.41059,-4.22487 0.0257,-1.2758 2.53321,-1.94142 1.80025,-3.30965 1.59449,-0.85977 3.93482,-0.2681 5.81221,-0.58243 3.80624,-0.0739 8.21683,-0.46224 11.49585,1.12787 1.32447,1.24806 -0.81012,3.3004 1.42733,4.22488 2.34033,1.16485 5.3493,1.60859 7.70247,2.59779 2.2889,0.65638 5.07928,0.36055 6.80235,-0.8875 2.01886,0.0555 3.18902,1.68256 5.34931,1.40522 4.98925,-0.12943 8.47401,-3.55002 10.29996,-6.63778 0.88726,-1.59012 1.31162,-3.35588 0.86156,-5.06616 3.5619,1.83046 8.89834,0.64714 11.2258,-1.89519 5.59363,1.11861 11.13578,-1.05391 14.80058,-3.86433 0.33433,-0.51772 3.16329,-1.81199 0.84869,-1.4422 -4.65493,-0.12018 -7.0081,-3.50379 -10.67288,-4.89976 -1.23445,-0.37904 1.08015,-1.24806 1.14444,-2.05235 1.58164,-2.61628 0.24432,-5.54688 -1.26016,-7.93205 0.0772,-0.96146 2.04454,-0.76732 2.00597,0.19414 1.55593,2.28347 6.09513,2.73647 9.11696,1.68256 1.14444,-0.41602 2.09599,-1.10013 2.5975,-1.97839 2.59748,2.37591 7.58674,1.69181 10.63429,0.24036 1.26017,-0.56393 2.72609,-1.38672 3.45905,-2.19102 -3.29188,-0.24036 -4.23058,-3.05078 -6.69949,-4.20639 -1.51735,-0.48073 -4.48775,-0.7211 -4.26914,-2.27423 0.99011,-0.71185 2.23744,0.50847 3.43332,0.39754 6.30085,0.98918 12.08735,-2.39441 14.92917,-6.11084 0.83583,-0.93373 1.40161,-1.97839 1.87738,-2.98608 -5.01495,1.21107 -9.86276,-2.44988 -14.77486,-0.94297 -1.49162,0.40678 -3.29188,1.57162 -4.7835,1.05392 -1.05443,-2.96759 1.92884,-5.65784 3.97339,-7.99677 0.99015,-0.81355 1.41449,-1.40522 -0.50149,-0.9892 -3.04756,0.47149 -6.2237,1.11863 -9.30982,0.42526 -2.12173,-0.23111 -4.02485,0.6194 -5.64507,1.4422 -2.54606,0.58242 -6.51945,-0.40679 -7.72818,1.88593 -1.23446,1.89519 -3.47191,3.43908 -6.30086,3.95678 -3.27901,1.24805 -4.98924,4.6594 -2.55892,6.8874 0.69438,0.2496 1.81311,1.12787 0.48864,1.40522 -1.89025,1.13711 -4.37202,2.92136 -7.00809,1.83972 0.38577,-2.66251 -0.88727,-5.31579 -0.23147,-7.9598 -4.42345,1.84896 -9.68273,3.55001 -11.71443,7.10003 -0.30863,0.48073 -0.47579,1.97838 -1.58165,1.26653 -0.64295,-0.67487 -1.98027,-1.46068 -0.79725,-2.08007 1.45304,-1.812 -0.19289,-3.82737 -1.42734,-5.39899 0.27004,-2.34818 3.76764,-4.29884 2.43033,-6.81343 -0.75867,-2.44063 -1.69737,-5.02917 -3.71622,-7.05379 -2.27602,-1.10014 -4.66778,0.7026 -6.96952,0.84128 0.5658,-1.01694 -0.0386,-2.228 -1.62021,-2.33894 -3.92196,-0.8875 -7.99823,0.60091 -11.12294,2.0616 -2.26317,1.25729 -3.66478,3.93828 -1.76167,5.66707 0.29576,1.56237 -2.76467,1.66406 -3.52333,2.91211 -1.64595,1.21108 -1.77453,3.43908 0.12859,4.42827 2.16028,1.6918 2.10884,4.99221 5.5036,5.75028 0.75866,0.29583 2.77752,-0.52696 2.63608,0.67487 0.34718,2.48686 5.18212,3.14325 5.19498,5.71329 0.83584,2.04312 3.96054,2.81967 5.77364,4.33583 -2.70036,0.47148 -5.1307,1.61785 -7.27812,2.70873 2.52033,1.42371 4.89923,3.64246 4.5649,6.01838 -1.13159,1.97839 -4.80923,1.49766 -7.18812,1.25729 -4.02484,-0.59167 -8.47401,-0.73035 -12.03592,0.97997 -2.66179,0.93372 -5.37502,2.1263 -8.43542,1.91367 -2.93184,-1.45144 -6.71235,-1.57162 -10.1071,-1.06316 2.03172,-3.65171 -0.55292,-7.67321 -4.25629,-10.03988 -1.32446,-0.90598 -2.95754,-1.41445 -3.54905,-2.77344 -0.69438,-0.57318 -1.53021,0.67487 -2.21172,0.87826 -2.71324,1.74727 -4.82208,4.03074 -6.14657,6.48986 -1.22158,-2.04311 -4.91208,-2.63478 -7.61245,-1.81198 -0.11572,-5.45445 -1.02872,-11.7132 -7.47102,-15.15227 -5.13069,-2.77345 -12.04877,-3.21719 -18.41392,-3.18022 -6.90523,-0.41601 -14.46625,-2.3112 -18.02816,-6.81343 -1.9417,-2.82891 -0.30862,-6.22175 2.27603,-8.52371 2.8418,-3.39286 5.29786,-7.01683 8.29398,-10.2895 1.82596,-3.4668 0.68152,-8.08921 4.92494,-10.72399 2.16031,-1.62709 5.61934,-1.31275 8.13967,-0.37904 3.71623,0.51772 8.384,-0.18488 10.93007,2.265 3.30474,2.52382 4.75778,6.09233 4.44918,9.54988 3.04756,-1.12787 5.58074,-2.78269 8.43542,-4.17865 4.88638,1.46068 9.34842,3.78113 12.55027,6.74871 1.1316,1.7103 -1.26017,3.55927 -0.11572,5.34351 0.48864,0.97996 -1.05443,1.4237 -2.07028,0.94298 -4.12769,-0.54545 -7.97251,2.28347 -7.40672,5.2603 -0.0129,2.42214 2.71323,4.39129 2.4689,6.79494 -0.51435,0.91523 -2.00598,1.40522 -2.10885,2.55157 -0.79725,1.56237 -0.1286,3.50379 -1.31162,4.909 -0.47577,0.29584 -1.69737,1.76577 -0.27002,1.51615 3.3433,-0.27734 6.78948,-0.0739 10.0685,-0.73033 -1.49163,3.2819 1.71024,6.231 4.68064,8.40353 1.90312,1.25729 3.44618,2.73647 5.07925,4.18789 2.04457,-0.59165 2.85468,-2.42213 4.25629,-3.56849 3.27902,-3.21719 5.18213,-7.51603 3.35618,-11.40809 0.56579,-0.94299 2.61035,-0.67489 3.34331,-1.62711 2.0317,-1.20182 1.99313,-3.21719 3.00898,-4.78881 1.67165,-0.89675 4.1277,-1.0724 4.98925,-2.63478 2.62321,-3.37436 1.24732,-7.70092 -1.28589,-10.84416 -1.0287,-1.08165 -2.91898,-1.03541 -4.48775,-1.08165 -1.67166,-0.45299 -0.77154,-2.3297 -2.48176,-2.81967 -2.39176,-1.24806 -6.62233,-0.8043 -7.72821,-3.25418 -1.31159,-2.09857 -1.91597,-4.40053 -2.79037,-6.63778 2.79037,0.0462 5.49075,0.74883 8.29399,0.65638 -0.42434,-2.77345 -0.36005,-5.95365 -3.43333,-7.9413 4.68064,-1.29427 8.66689,-3.68868 11.53443,-6.61005 -4.93782,-0.48997 -8.58974,-4.1879 -13.86189,-3.36511 0.37291,-2.57005 -2.44319,-5.67632 -6.37801,-4.95522 -2.07028,0.037 -2.30173,-1.74727 -2.89324,-2.73647 -0.38576,-0.34205 -1.89027,-1.05391 -0.60437,-1.13711 4.64205,0.40678 7.45816,-2.82891 10.28711,-4.909 2.63606,-1.65481 6.71234,-1.33125 9.46414,0.037 4.53919,1.71953 10.23568,1.69179 14.13191,4.1879 1.67166,1.02618 -1.04157,0.36979 -1.92882,0.73958 -3.66479,0.57318 -5.42645,3.26342 -4.78351,5.79649 0.28289,2.20028 1.40161,4.18791 2.90611,6.09235 -3.52335,0.55468 -3.56192,3.74416 -2.62322,5.74104 0.54008,1.84896 1.85167,3.58699 1.78738,5.5099 6.58376,-2.13554 13.09036,-5.13087 16.2022,-9.97516 5.24643,1.34975 10.73717,-1.03542 13.42468,-4.09545 0.86155,-0.83204 3.54906,-1.01693 3.42047,0.40677 -2.03171,0.21263 0.0514,2.86589 -2.40462,2.5793 -3.78051,-0.23112 -7.86963,1.1556 -8.43542,4.05848 -0.77153,1.70105 0.20574,4.08621 -2.4432,5.01069 -3.67764,1.72879 -4.77065,5.38049 -3.67764,8.32958 -2.99611,1.8767 -2.00598,5.32501 -1.80024,7.85811 4.91209,-0.68413 8.8212,-3.75341 14.01618,-3.74416 -0.59151,2.16328 1.53022,4.23413 0.60437,6.39742 0.39863,3.4668 5.61933,5.22333 6.40373,8.5607 4.06341,-2.00613 8.04966,-4.73334 8.55116,-8.41279 0.73296,-2.73647 1.77453,-6.00913 5.6965,-7.137 1.99311,-0.89675 2.89323,-2.69024 2.16029,-4.30809 -0.28291,-0.90599 0.57864,-2.46836 2.096,-1.73802 5.34929,1.06316 10.93004,1.74727 15.67497,3.90131 1.54306,-3.31889 1.02871,-7.24794 -1.27302,-10.24325 -1.38877,-1.2573 -3.61336,-1.75652 -5.05355,-3.0323 5.64507,-0.31433 10.13281,-3.52228 13.15465,-6.42516 -4.65493,0.51771 -7.93395,-3.2172 -12.62743,-2.57006 1.19587,-3.99376 -3.87054,-8.5607 -9.72132,-7.7564 -2.12173,0.35131 -3.83195,1.5069 -5.87651,1.93217 -0.88727,-2.8659 -6.23656,-3.37435 -9.24555,-1.83048 -1.17015,0.58243 -3.85766,1.2388 -4.10198,-0.31432 0.34719,-1.20183 2.64894,-0.5547 3.66479,-1.19258 4.87351,-1.38672 8.34541,-4.59468 11.67587,-7.45132 -5.54219,0.23112 -9.00123,-4.60393 -14.65915,-3.68869 1.86456,-2.48685 2.53321,-5.38973 3.35618,-8.18167 -5.43931,2.32045 -12.48597,1.11863 -17.89957,3.49454 -0.11573,-2.53308 -1.78738,-4.81654 -2.63608,-7.22944 -3.72906,3.85508 -11.13579,5.61161 -12.89746,10.37267 -0.38577,0.74884 0.33433,1.92294 -0.64294,2.55158 -3.48475,-1.33126 -7.62532,-1.57162 -11.03292,-2.93061 4.48775,-2.01537 6.73805,-5.74102 7.49673,-9.37424 -4.48777,1.46069 -9.59274,0.01 -14.3248,0.48998 2.70036,-2.52384 1.92883,-5.88895 2.75179,-8.83805 -4.47488,0.12943 -8.42257,1.95065 -12.62742,2.69025 -1.80024,0.48072 -3.189,1.6733 -3.27902,3.06002 -0.82297,0.67488 -2.28888,1.10014 -3.38188,1.24805 -2.54606,-1.59935 -7.49673,-2.62552 -9.54131,-0.13866 -0.91298,1.12786 -1.44018,2.57006 -3.24042,3.14323 -2.40461,-4.07696 -9.43844,-4.98296 -15.14777,-4.51147 -2.84181,0.19415 -6.01797,0.50847 -8.55118,1.01693 0.79726,1.92292 2.8804,3.57775 3.76766,5.51916 2.63608,3.55925 8.2297,6.12006 13.92619,4.95522 1.09299,-0.12018 3.56191,-0.47149 3.84481,-0.0739 -1.02872,0.92448 -3.03471,1.21107 -3.1633,2.56081 -1.92883,3.29118 -5.04068,6.1016 -8.3197,8.74561 -2.19887,0.52697 -4.14055,-0.61015 -6.14654,-0.95221 -0.66867,-0.61941 -1.76167,-0.37904 -1.6588,0.4345 -0.74581,2.56081 -0.12859,5.14937 0.27003,7.69168 -1.04156,2.02462 -4.71921,1.76577 -6.89236,2.87515 -4.91209,1.96914 -9.63131,4.38204 -15.2635,5.06615 -5.49075,1.0909 -10.68573,3.96604 -11.48298,8.26488 -0.27003,1.03542 -0.25717,2.08933 -0.32148,3.14324 -1.67165,-1.84896 -4.14056,-3.63321 -3.49761,-6.04611 0.0257,-1.24804 0.0257,-2.57006 -0.9387,-3.65171 3.00898,0.61017 5.37502,-1.10014 7.22669,-2.57931 2.66179,-0.58242 5.73506,-0.58242 7.65103,-2.26498 2.58465,-1.70105 3.87053,-4.14167 5.28502,-6.45287 -5.04069,0.82279 -9.19412,-1.87671 -14.06763,-2.08934 0.82297,-0.92448 2.62321,-2.10782 1.69737,-3.33737 2.54606,-0.56394 1.59452,-2.92137 2.21174,-4.36356 0.23145,-1.6918 0.0129,-3.49455 -1.15731,-5.01069 -3.33045,1.9414 -7.29098,3.44832 -11.56013,3.95678 1.32446,-5.10314 4.65492,-9.7163 6.64804,-14.63456 1.41448,-1.7565 4.96353,-1.54387 6.35229,-3.39284 1.24731,-1.06316 2.30175,-2.27423 3.76766,-3.18946 2.68751,2.11706 7.66389,3.12475 10.96863,1.27579 3.189,-1.39597 7.11096,-0.73035 10.62144,-0.49922 3.65192,-0.0832 6.30085,-2.11707 8.37113,-4.00301 2.44318,-1.71955 6.06939,-0.32358 8.94978,-1.31277 5.14356,-1.17409 8.69261,-4.19715 10.90435,-7.52529 0.77154,-0.84127 -1.58165,-0.36054 -2.14744,-0.56393 -4.66778,-0.73958 -8.79548,-2.5793 -13.37324,-3.46681 2.13457,-1.66406 3.189,-3.9013 3.65192,-6.17553 -4.07627,-0.0462 -8.20396,-0.62865 -12.24167,0 -3.43332,-0.32357 -5.285,-3.54078 -9.09123,-2.8659 -2.44318,0.25886 -3.88338,1.95067 -5.79935,2.78269 -2.62322,0.33282 -4.65492,-1.60859 -7.31671,-0.84127 -2.57178,0.57317 -2.54605,2.69949 -3.04755,4.25262 -1.32447,1.83047 -3.99912,3.33737 -3.80624,5.66707 -0.0514,1.28502 0.54008,2.60704 1.73595,3.57775 -1.28588,0.81353 -2.57177,2.51458 -4.56489,1.92291 -1.36305,-0.24036 -1.24733,-1.33125 -0.33434,-1.92291 1.76167,-2.50536 1.18301,-6.48062 -2.94468,-7.31266 -2.91897,-0.70261 -5.46504,-2.25573 -8.43544,-2.69023 -3.60049,0.0184 -5.78649,2.44063 -7.54817,4.3358 -1.29875,0.89675 -1.98026,-0.91523 -3.42046,-0.73034 -1.90312,-0.2496 -4.68064,0.31433 -5.46503,-1.35899 -1.10586,-1.78424 -1.54306,-3.86433 -4.02483,-5.01992 -2.12171,-1.42371 -4.66778,-2.66252 -7.35528,-3.31891 l 0.0514,0.21263 0.0257,0.11095 z"
       style="fill:#ffffff;fill-opacity:1;fill-rule:evenodd;stroke:#ffffff;stroke-width:2.18062472;stroke-miterlimit:4;stroke-dasharray:none;stroke-opacity:1"
       id="path7500" />
  </g>
</svg>
