<?xml version="1.0" encoding="UTF-8" standalone="no"?>
<!-- Created with Inkscape (http://www.inkscape.org/) -->

<svg
   xmlns:dc="http://purl.org/dc/elements/1.1/"
   xmlns:cc="http://creativecommons.org/ns#"
   xmlns:rdf="http://www.w3.org/1999/02/22-rdf-syntax-ns#"
   xmlns:svg="http://www.w3.org/2000/svg"
   xmlns="http://www.w3.org/2000/svg"
   xmlns:sodipodi="http://sodipodi.sourceforge.net/DTD/sodipodi-0.dtd"
   xmlns:inkscape="http://www.inkscape.org/namespaces/inkscape"
   width="42.666668"
   height="42.666668"
   id="svg3979"
   version="1.1"
   inkscape:version="0.92.1 r"
   sodipodi:docname="gruppe.svg"
   inkscape:export-filename="/home/roman/androiddev/werke/getnoecarddata/gruppe.png"
   inkscape:export-xdpi="2250"
   inkscape:export-ydpi="2250">
  <defs
     id="defs3981" />
  <sodipodi:namedview
     id="base"
     pagecolor="#ffffff"
     bordercolor="#666666"
     borderopacity="1.0"
     inkscape:pageopacity="0.0"
     inkscape:pageshadow="2"
     inkscape:zoom="10.882812"
     inkscape:cx="12.569991"
     inkscape:cy="-0.68961823"
     inkscape:document-units="px"
     inkscape:current-layer="layer1"
     showgrid="false"
     fit-margin-top="0"
     fit-margin-left="0"
     fit-margin-right="0"
     fit-margin-bottom="0"
     inkscape:window-width="3840"
     inkscape:window-height="2096"
     inkscape:window-x="0"
     inkscape:window-y="27"
     inkscape:window-maximized="1" />
  <metadata
     id="metadata3984">
    <rdf:RDF>
      <cc:Work
         rdf:about="">
        <dc:format>image/svg+xml</dc:format>
        <dc:type
           rdf:resource="http://purl.org/dc/dcmitype/StillImage" />
        <dc:title />
      </cc:Work>
    </rdf:RDF>
  </metadata>
  <g
     inkscape:label="Ebene 1"
     inkscape:groupmode="layer"
     id="layer1"
     transform="translate(-422.86561,-180.43363)">
    <g
       id="g4805"
       transform="matrix(1.1904932,0,0,1.220385,-80.517934,-55.483982)">
      <path
         sodipodi:nodetypes="czzzzzccczc"
         inkscape:connector-curvature="0"
         id="path4018"
         d="m 437.02433,216.08302 c 2.68139,-1.4769 2.23777,-4.8128 0.58122,-7.89247 -1.65655,-3.07967 -0.80324,-6.31182 2.92005,-6.44877 3.7233,-0.13695 4.15319,3.97095 3.45477,5.99209 -0.69843,2.02114 -1.66018,2.78137 -1.636,5.5156 0.0242,2.73423 2.64584,2.75842 3.88682,3.4188 1.24097,0.66036 2.47062,0.90004 3.82751,2.64651 0.646,0.8183 1.10914,1.75129 1.17703,3.14528 -7.08712,0.0872 -14.31009,0.0906 -20.90581,0.0471 0.14362,-1.70783 0.70353,-3.14651 1.96449,-4.14344 1.26096,-0.99693 3.37599,-1.70461 4.72992,-2.28075 z"
         style="fill:#000000;fill-opacity:1;stroke:#000000;stroke-width:1.06666672px;stroke-linecap:butt;stroke-linejoin:miter;stroke-opacity:1" />
      <path
         sodipodi:nodetypes="ccccccccscccc"
         inkscape:connector-curvature="0"
         id="path4020"
         d="m 458.11063,222.49439 c 0.11582,-0.68953 -0.18344,-2.04693 -0.60113,-2.57372 -1.37495,-1.43411 -3.707,-1.39262 -4.97015,-2.97545 -0.60377,-0.79613 -0.60638,-1.96459 -0.009,-2.76703 0.42501,-0.62856 0.92024,-2.37659 0.77942,-3.16507 -0.0595,-1.31267 -0.20778,-1.70288 -0.96653,-2.82799 -0.69453,-0.80546 -1.95822,-0.90545 -2.88976,-0.49983 -1.03446,0.59929 -1.44641,1.84531 -1.63294,2.95997 -0.10336,0.93505 0.342,2.68861 0.86757,3.33858 0.70821,0.87582 0.61672,1.83808 0.24589,2.47535 2.10071,1.22554 3.6744,3.72969 3.71864,6.02351 1.82822,0.0845 3.75372,0.0586 5.45752,0.0116 z"
         style="fill:#000000;fill-opacity:1;stroke:#000000;stroke-width:1.06666672px;stroke-linecap:butt;stroke-linejoin:miter;stroke-opacity:1" />
      <path
         style="fill:#000000;fill-opacity:1;stroke:#000000;stroke-width:1.06666672px;stroke-linecap:butt;stroke-linejoin:miter;stroke-opacity:1"
         d="m 423.40115,222.51889 c -0.11582,-0.68952 0.18345,-2.04693 0.60113,-2.57372 1.37496,-1.43411 3.70701,-1.39262 4.97016,-2.97545 0.60376,-0.79613 0.60638,-1.96459 0.009,-2.76703 -0.42501,-0.62856 -0.92024,-2.37659 -0.77942,-3.16507 0.0595,-1.31267 0.20777,-1.70288 0.96652,-2.82799 0.69453,-0.80546 1.95822,-0.90545 2.88976,-0.49983 1.03447,0.59929 1.44642,1.84531 1.63294,2.95997 0.10336,0.93505 -0.34199,2.68861 -0.86756,3.33858 -0.70821,0.87582 -0.54321,1.83808 -0.17238,2.47535 -2.19872,1.02951 -3.74792,3.72969 -3.79215,6.02351 -1.82823,0.0845 -3.75372,0.0586 -5.45753,0.0116 z"
         id="path4800"
         inkscape:connector-curvature="0"
         sodipodi:nodetypes="ccccccccscccc" />
    </g>
  </g>
</svg>
