<?xml version="1.0" encoding="UTF-8" standalone="no"?>
<svg
   xmlns:dc="http://purl.org/dc/elements/1.1/"
   xmlns:cc="http://creativecommons.org/ns#"
   xmlns:rdf="http://www.w3.org/1999/02/22-rdf-syntax-ns#"
   xmlns:svg="http://www.w3.org/2000/svg"
   xmlns="http://www.w3.org/2000/svg"
   xmlns:sodipodi="http://sodipodi.sourceforge.net/DTD/sodipodi-0.dtd"
   xmlns:inkscape="http://www.inkscape.org/namespaces/inkscape"
   height="25.6"
   viewBox="0 0 24 24"
   width="25.6"
   id="svg6147"
   version="1.1"
   inkscape:version="0.92.1 r"
   sodipodi:docname="ic_globe.svg"
   style="fill:#000000">
  <metadata
     id="metadata6157">
    <rdf:RDF>
      <cc:Work
         rdf:about="">
        <dc:format>image/svg+xml</dc:format>
        <dc:type
           rdf:resource="http://purl.org/dc/dcmitype/StillImage" />
        <dc:title />
      </cc:Work>
    </rdf:RDF>
  </metadata>
  <defs
     id="defs6155" />
  <sodipodi:namedview
     pagecolor="#ffffff"
     bordercolor="#666666"
     borderopacity="1"
     objecttolerance="10"
     gridtolerance="10"
     guidetolerance="10"
     inkscape:pageopacity="0"
     inkscape:pageshadow="2"
     inkscape:window-width="3840"
     inkscape:window-height="2096"
     id="namedview6153"
     showgrid="false"
     inkscape:zoom="19.666667"
     inkscape:cx="13.328102"
     inkscape:cy="13.647867"
     inkscape:window-x="0"
     inkscape:window-y="27"
     inkscape:window-maximized="1"
     inkscape:current-layer="svg6147" />
  <path
     inkscape:connector-curvature="0"
     style="display:inline;fill:#000000;fill-opacity:1;fill-rule:nonzero;stroke:none;enable-background:new"
     id="path9028"
     d="m 12.025458,1.8813056 c -5.5183379,0 -9.9915595,4.4733123 -9.9915595,9.9915924 0,5.51843 4.4732216,9.99156 9.9915595,9.99156 5.517794,0 9.991561,-4.473071 9.991561,-9.99156 0,-5.5182801 -4.473767,-9.9915924 -9.991561,-9.9915924 z m -0.05162,1.1968986 0.884739,0.3642979 -0.416376,1.0148095 c -0.499099,0.2306236 -0.984386,0.4100482 -1.509124,0.572335 L 10.620826,5.5761242 10.334674,5.7062565 9.9443372,4.9255832 10.23055,4.6133317 V 4.3011103 L 9.4499362,3.7547235 9.6841017,3.5465654 10.933078,3.1822978 11.973834,3.0782042 Z m -2.4198642,0.078025 0.1301324,0.208158 C 9.4369773,3.4444993 9.2141956,3.5376655 8.9816041,3.6506611 L 8.617276,3.7287472 8.4612258,3.8847974 8.0188721,3.8067718 8.1229364,3.6766384 8.2790159,3.6246818 8.5653194,3.4684502 8.9034889,3.4424114 9.1117375,3.2082762 9.5539693,3.1561684 Z M 7.5504806,4.0929544 7.7327197,4.4051747 7.8626707,4.1450611 8.1749526,4.0929534 8.2009913,4.275132 8.851502,4.3271491 9.0076127,4.6914168 9.3978889,4.8475274 9.0336514,5.13371 C 8.8070849,4.980173 8.5835465,4.8451966 8.3571322,4.6914168 L 8.0189024,4.5613449 C 7.8696651,4.660925 7.7492217,4.769927 7.6025572,4.8735964 L 7.3944001,5.2638424 H 7.0821486 L 7.1862421,4.9516221 6.7959962,5.3158897 5.9633058,5.8102907 6.0415733,6.1485196 6.6921444,6.4347928 6.796238,6.8770862 7.0564132,6.3566776 7.3946117,6.2266057 7.368573,5.9924089 7.7590014,5.341868 8.2273021,5.6021327 8.175678,5.9143843 8.5660459,5.7581829 8.748134,6.1225413 8.669837,6.3306993 8.903943,6.4347925 9.1121605,6.6168815 9.0339235,6.8250386 8.4615281,7.0331965 H 8.0712509 L 7.4987648,7.2934008 H 8.4093902 L 8.0971678,7.7617331 7.4987638,7.8918655 7.2125813,8.2821417 6.7181812,8.4642305 6.5099628,9.0367481 5.8595427,9.5831345 5.7812752,10.337648 5.4170076,9.8693771 4.8966291,9.7653147 4.8183621,9.9994505 h -0.416315 l -0.4684529,0.3642675 -0.1040635,0.468363 0.026038,0.442293 0.3643584,0.18218 0.2340748,-0.104095 0.2342572,-0.338199 h 0.2341656 c -0.034543,0.269197 -0.07076,0.563251 -0.1040635,0.83263 l 0.4163452,-0.02603 v 0.390247 l 0.1300719,0.390336 c 0.1646487,0.101344 0.4135598,0.102676 0.5984341,0.15614 v -0.07803 l 0.5984947,-0.546478 0.5723944,0.442384 0.6765202,-0.07808 0.2861524,0.728536 0.4944302,0.104095 0.2862431,0.546357 c 0.5535324,0.284851 1.1075193,0.582084 1.6652596,0.858699 l -0.05214,0.546448 -0.416316,0.572365 0.05217,0.806652 -0.2603253,0.598495 -0.5204085,0.130041 -0.2340144,0.338229 0.078268,0.234228 -0.3123422,0.83263 -0.4423235,0.182088 -0.1041537,0.234226 -0.2601136,0.286153 0.078268,0.182179 c -9.06e-5,0 -0.089594,0.05281 -0.1562014,0.104095 -0.067516,0.05051 -1.1450931,-0.535881 -1.1708598,-0.624473 -0.026644,-0.08835 0,-0.07812 0,-0.07812 L 7.0563509,18.169638 6.8222156,17.727284 6.8482536,16.920692 6.58814,16.556424 5.9896455,16.010068 5.3651735,14.891164 5.5473522,14.318739 5.4690842,14.162627 5.7032195,13.850377 5.9634541,13.121841 v -0.07812 L 5.7553878,12.965691 5.4690842,12.991731 5.000783,12.653447 4.6885315,12.26317 3.9859735,12.08099 3.2575279,11.638697 c 0,-6.1e-5 -0.2957195,-0.465334 -0.3122506,-0.546447 0.4377203,-3.5037987 2.319374,-5.3589893 3.2523731,-6.2186576 0.07327,-0.018168 0.3643594,-0.078117 0.3643594,-0.078117 l 0.1560797,-0.4163132 0.2861826,0.026039 0.2082175,0.1301636 -0.026039,0.4163149 0.051624,-0.1040945 0.2862743,-0.234226 -0.026039,-0.390246 0.051594,-0.1301323 z m 8.6905674,0.286243 0.442384,0.1561399 0.806561,0.1561106 -0.182028,0.2341363 h -0.468483 l 0.468483,0.4684228 0.3382,-0.3903377 0.104095,-0.1821796 c 0,0 1.285188,1.1687104 2.029498,2.4459341 0.744644,1.2776182 1.092865,2.7904922 1.092865,3.0963252 l -0.234134,0.286153 C 20.482288,10.465995 20.296173,10.317211 20.11811,10.15559 l -0.390367,0.05202 -0.338261,-0.416316 v 0.52038 l 0.286184,0.208157 0.234287,0.260205 0.260113,-0.338291 c 0.06907,0.128135 0.113874,0.262173 0.182118,0.390337 v 0.390337 l -0.286212,0.3382 -0.572364,0.390336 -0.390308,0.416316 c 0.190082,-0.01393 0.377834,-0.05374 0.572366,-0.07808 v 0.286243 l -0.416285,1.014717 -0.364298,0.390278 -0.312191,0.650541 v 1.092804 l 0.104029,0.416345 -0.15608,0.182149 -0.364267,0.260114 -0.390337,0.312251 0.31225,0.36436 -0.442322,0.390246 0.07824,0.260204 -0.650451,0.728566 h -0.442415 l -0.390306,0.260175 h -0.234225 v -0.33829 l -0.07827,-0.598404 c -0.131405,-0.386189 -0.276918,-0.787517 -0.416345,-1.17095 0,-0.282912 0.0085,-0.549536 0.02604,-0.8326 l 0.15611,-0.390276 -0.234226,-0.468332 0.02604,-0.624473 -0.31216,-0.390367 0.156201,-0.494341 -0.286304,-0.31222 h -0.442322 l -0.156112,-0.15611 -0.442323,0.260174 -0.208128,-0.182089 -0.390337,0.364208 c -0.288595,-0.326906 -0.595728,-0.661865 -0.884575,-0.98868 l -0.364389,-0.806653 0.312251,-0.468361 -0.15602,-0.208158 0.364087,-0.858669 c 0.306832,-0.3816177 0.638581,-0.7513656 0.962823,-1.1188127 l 0.572455,-0.1561112 0.650482,-0.078116 0.442382,0.1301325 0.624474,0.6244712 0.208127,-0.234196 0.338259,-0.078027 0.572396,0.2081567 h 0.416285 L 17.776191,9.2449085 17.906292,9.0627283 17.62014,8.8805503 17.099762,8.8545153 C 16.958292,8.6582491 16.825314,8.4563287 16.657364,8.2820811 l -0.15617,0.052015 -0.07824,0.5203796 L 16.110762,8.4902062 16.059112,8.0999607 15.694845,7.8396654 H 15.564713 L 15.92901,8.2300018 15.798879,8.5682315 15.512696,8.6463145 15.668807,8.3081156 15.382624,8.1259057 15.096381,7.8396624 14.602011,7.9437556 14.497948,8.0999575 14.211705,8.3081153 14.055595,8.7244298 13.61318,8.9325862 13.431121,8.7244298 H 13.223055 V 8.0218417 l 0.442263,-0.2081579 h 0.364177 l -0.103974,-0.2862431 -0.260205,-0.2601439 0.46824,-0.1040635 0.234287,-0.286243 0.104096,-0.1822099 -0.260235,0.260295 -0.390337,0.078025 0.07827,-0.4683622 V 6.2265083 L 13.769655,6.070307 V 5.8621802 h 0.181998 c 0.1001,0.2040697 0.207249,0.3857345 0.286274,0.5984644 l 0.234165,0.2341353 0.130072,-0.15602 h 0.364208 l -0.104029,-0.286243 0.234228,-0.130072 V 6.4346965 L 15.59082,6.53876 16.11135,6.122445 16.13739,5.914288 16.579804,5.6020365 c -0.159683,0.019982 -0.312432,0.035299 -0.468452,0.078025 V 5.3417721 L 16.267553,4.9515252 H 16.111352 L 15.721076,5.3157938 15.642806,5.4979735 15.721076,5.758087 15.564904,6.2265088 15.304821,6.0703074 15.044586,5.810224 14.706327,6.0703074 14.550126,5.4458355 15.200697,5.0295206 V 4.7953853 l 0.390276,-0.2601752 0.650511,-0.1561106 z m -3.356498,0.4944303 0.208066,0.2341363 -0.416345,0.286243 -0.234075,-0.1562014 0.02604,-0.2341363 0.130072,0.026039 0.286273,-0.15602 z m -4.4754621,0.078025 0.3383205,0.1561107 v 0.286243 H 8.4612258 L 8.1490347,5.1337413 Z M 13.639095,6.304661 13.769288,6.6429513 13.482984,6.7990005 13.378955,6.3567083 13.639099,6.3046913 Z M 8.9294369,7.0071591 9.2677867,7.2153171 9.0336212,7.5275374 Z" />
  <path
     d="M 0,0 H 24 V 24 H 0 Z"
     id="path6149"
     inkscape:connector-curvature="0"
     style="fill:none" />
</svg>
