<?xml version="1.0" encoding="UTF-8" standalone="no"?>
<!-- Created with Inkscape (http://www.inkscape.org/) -->

<svg
   xmlns:dc="http://purl.org/dc/elements/1.1/"
   xmlns:cc="http://creativecommons.org/ns#"
   xmlns:rdf="http://www.w3.org/1999/02/22-rdf-syntax-ns#"
   xmlns:svg="http://www.w3.org/2000/svg"
   xmlns="http://www.w3.org/2000/svg"
   xmlns:sodipodi="http://sodipodi.sourceforge.net/DTD/sodipodi-0.dtd"
   xmlns:inkscape="http://www.inkscape.org/namespaces/inkscape"
   width="298.66666"
   height="298.66666"
   id="svg4829"
   version="1.1"
   inkscape:version="0.92.1 r"
   sodipodi:docname="kinderwagen.svg"
   inkscape:export-filename="/home/roman/androiddev/werke/getnoecarddata/kinderwagen.png"
   inkscape:export-xdpi="321.42999"
   inkscape:export-ydpi="321.42999">
  <defs
     id="defs4831" />
  <sodipodi:namedview
     id="base"
     pagecolor="#ffffff"
     bordercolor="#666666"
     borderopacity="1.0"
     inkscape:pageopacity="0.0"
     inkscape:pageshadow="2"
     inkscape:zoom="0.92648711"
     inkscape:cx="337.35699"
     inkscape:cy="-41.201955"
     inkscape:document-units="px"
     inkscape:current-layer="layer1"
     showgrid="false"
     fit-margin-top="0"
     fit-margin-left="0"
     fit-margin-right="0"
     fit-margin-bottom="0"
     inkscape:window-width="3840"
     inkscape:window-height="2096"
     inkscape:window-x="0"
     inkscape:window-y="27"
     inkscape:window-maximized="1" />
  <metadata
     id="metadata4834">
    <rdf:RDF>
      <cc:Work
         rdf:about="">
        <dc:format>image/svg+xml</dc:format>
        <dc:type
           rdf:resource="http://purl.org/dc/dcmitype/StillImage" />
        <dc:title />
      </cc:Work>
    </rdf:RDF>
  </metadata>
  <g
     inkscape:label="Ebene 1"
     inkscape:groupmode="layer"
     id="layer1"
     transform="translate(158.71844,287.92855)">
    <g
       id="g5406"
       transform="matrix(1.0356534,0,0,1.0356534,5.6464454,-4.6249789)">
      <path
         sodipodi:nodetypes="cccccccccccccccccc"
         inkscape:connector-curvature="0"
         id="path4889"
         d="m -68.888444,-66.89163 c -31.410266,-4.559767 -66.362296,-17.497333 -80.454286,-48.37509 -6.43897,-13.07521 -8.62961,-27.66914 -8.61238,-42.11215 77.587204,-0.18092 155.1744124,-0.36182 232.761621,-0.54273 9.617583,-19.22125 16.446387,-39.6269 23.84888,-59.72825 6.442239,-16.42974 33.940189,-6.92382 30.128789,9.88711 0.45824,13.6574 -16.96677,9.00372 -18.30207,19.96575 -13.131076,32.04914 -23.049248,67.91638 -51.351759,90.392928 -28.717947,23.361413 -66.8467417,33.183728 -103.452147,31.062943 -8.188568,-0.111936 -16.388781,-0.07797 -24.566648,-0.550511 z m -89.233136,-99.06972 c -0.6311,-17.30954 4.58516,-34.98873 12.74955,-50.22617 14.69708,-26.13852 40.26856,-45.88057 69.815673,-51.88548 7.185161,-1.20457 17.266309,-3.43605 23.205571,-1.54289 0.18298,35.10122 0.365955,70.20246 0.548924,105.30369 -34.761827,-0.27503 -69.567158,0.69558 -104.293648,-0.77678 l -1.48267,-0.38318 z"
         style="fill:#000000;fill-opacity:1;stroke:#000000;stroke-width:1.06666672;stroke-opacity:1" />
      <circle
         id="path5400"
         style="fill:#000000;fill-opacity:1;stroke:#000000;stroke-width:3.170856;stroke-linecap:butt;stroke-linejoin:miter;stroke-miterlimit:4;stroke-dasharray:none;stroke-opacity:1"
         cx="-109.37683"
         cy="-28.921518"
         r="35.747906" />
      <circle
         style="fill:#000000;fill-opacity:1;stroke:#000000;stroke-width:3.170856;stroke-linecap:butt;stroke-linejoin:miter;stroke-miterlimit:4;stroke-dasharray:none;stroke-opacity:1"
         id="path5404"
         cx="31.082039"
         cy="-26.618914"
         r="35.747906" />
    </g>
  </g>
</svg>
