<?xml version="1.0" encoding="UTF-8" standalone="no"?>
<!-- Created with Inkscape (http://www.inkscape.org/) -->

<svg
   xmlns:dc="http://purl.org/dc/elements/1.1/"
   xmlns:cc="http://creativecommons.org/ns#"
   xmlns:rdf="http://www.w3.org/1999/02/22-rdf-syntax-ns#"
   xmlns:svg="http://www.w3.org/2000/svg"
   xmlns="http://www.w3.org/2000/svg"
   xmlns:sodipodi="http://sodipodi.sourceforge.net/DTD/sodipodi-0.dtd"
   xmlns:inkscape="http://www.inkscape.org/namespaces/inkscape"
   width="341.33334"
   height="341.33334"
   id="svg2"
   version="1.1"
   inkscape:version="0.92.1 r"
   sodipodi:docname="stifte.svg"
   inkscape:export-filename="/home/roman/androiddev/werke/getnoecarddata/stifte.png"
   inkscape:export-xdpi="281.25"
   inkscape:export-ydpi="281.25">
  <defs
     id="defs4" />
  <sodipodi:namedview
     id="base"
     pagecolor="#a30c00"
     bordercolor="#666666"
     borderopacity="1.0"
     inkscape:pageopacity="1"
     inkscape:pageshadow="2"
     inkscape:zoom="0.93467211"
     inkscape:cx="-104.96836"
     inkscape:cy="94.285229"
     inkscape:document-units="px"
     inkscape:current-layer="layer1"
     showgrid="false"
     inkscape:window-width="3840"
     inkscape:window-height="2096"
     inkscape:window-x="0"
     inkscape:window-y="27"
     inkscape:window-maximized="1"
     fit-margin-top="10"
     fit-margin-left="10"
     fit-margin-right="10"
     fit-margin-bottom="10" />
  <metadata
     id="metadata7">
    <rdf:RDF>
      <cc:Work
         rdf:about="">
        <dc:format>image/svg+xml</dc:format>
        <dc:type
           rdf:resource="http://purl.org/dc/dcmitype/StillImage" />
        <dc:title />
      </cc:Work>
    </rdf:RDF>
  </metadata>
  <g
     inkscape:label="Ebene 1"
     inkscape:groupmode="layer"
     id="layer1"
     transform="translate(-340.87883,-31.553973)">
    <rect
       style="opacity:1;fill:#a30c00;fill-opacity:1;fill-rule:nonzero;stroke:none;stroke-width:1.38666666;stroke-linecap:round;stroke-linejoin:round;stroke-miterlimit:4;stroke-dasharray:none;stroke-opacity:1"
       id="rect4134"
       width="341.33334"
       height="341.33334"
       x="340.87885"
       y="31.553972" />
    <path
       style="fill:#ffffff;fill-opacity:1;stroke-width:1.06666672"
       d="m 430.27876,62.21171 c -4.79225,0 -5.61558,1.11142 -6.21054,8.299795 -0.59001,7.129131 -1.45803,8.299795 -6.09605,8.299795 -4.28044,0 -5.38055,1.137294 -5.38055,5.523657 0,4.422841 1.10081,5.523656 5.52365,5.523656 5.43411,0 5.52365,0.299194 5.52365,17.601287 v 17.60129 c -11.31241,12.29525 -15.80546,18.26768 -26.61657,32.083 -0.10702,1.24786 -0.14137,42.77676 -0.0859,92.27082 l 0.0859,89.98122 h 6.38225 6.38226 v -45.41991 -45.39129 l 3.54887,-2.86199 c 3.69062,-2.96587 9.09988,-5.97947 12.62141,-7.0119 l 2.06064,-0.60102 v 50.65737 50.62874 h 3.17682 3.20544 v -50.5715 c 0,-39.85819 0.2471,-50.57884 1.1448,-50.57151 2.40072,0.0188 10.66994,4.51917 14.25275,7.75602 l 3.74922,3.37715 v 45.01923 44.99061 h 85.20168 85.20169 l -0.0286,-63.56498 -0.0286,-63.56498 -14.79653,-19.57606 -14.7679,-19.60468 -63.56499,-0.22896 -63.56498,-0.22896 v -8.21395 -8.18531 l -21.43636,-21.37912 -8.84357,-9.5877 v -17.68715 c 0,-17.409257 0.0869,-17.715767 5.52364,-17.715767 4.42284,0 5.52366,-1.100815 5.52366,-5.523656 0,-4.386363 -1.1001,-5.523657 -5.38055,-5.523657 -4.63802,0 -5.50603,-1.170664 -6.09605,-8.299795 -0.59496,-7.188375 -1.41828,-8.299795 -6.21054,-8.299795 z m 74.183,172.97917 c 4.13962,-0.005 8.3081,1.91468 12.42107,5.75262 l 3.4344,3.20544 v 23.01046 23.01047 h -15.56927 -15.56927 v -23.18219 -23.18219 l 2.97648,-2.80475 c 4.05623,-3.84932 8.16696,-5.80409 12.30659,-5.80986 z m 55.78034,0.0286 c 4.86044,0 9.77262,2.33243 13.88069,6.61122 l 3.0051,3.11957 -0.25758,22.38083 -0.22896,22.38082 -15.79822,0.22896 -15.79823,0.25758 V 267.4742 c 0,-16.81228 0.29851,-23.14354 1.14479,-24.2125 0.62964,-0.79532 3.12106,-2.93141 5.55227,-4.75093 3.53553,-2.64599 5.23078,-3.29129 8.50014,-3.29129 z"
       id="path2996"
       inkscape:connector-curvature="0" />
  </g>
</svg>
