<?xml version="1.0" encoding="UTF-8" standalone="no"?>
<svg
   xmlns:dc="http://purl.org/dc/elements/1.1/"
   xmlns:cc="http://creativecommons.org/ns#"
   xmlns:rdf="http://www.w3.org/1999/02/22-rdf-syntax-ns#"
   xmlns:svg="http://www.w3.org/2000/svg"
   xmlns="http://www.w3.org/2000/svg"
   xmlns:sodipodi="http://sodipodi.sourceforge.net/DTD/sodipodi-0.dtd"
   xmlns:inkscape="http://www.inkscape.org/namespaces/inkscape"
   version="1.1"
   id="svg2"
   height="302.8493"
   width="302.84503"
   inkscape:version="0.92.1 r"
   sodipodi:docname="top_ausflugsziel_.svg">
  <sodipodi:namedview
     pagecolor="#ffffff"
     bordercolor="#666666"
     borderopacity="1"
     objecttolerance="10"
     gridtolerance="10"
     guidetolerance="10"
     inkscape:pageopacity="0"
     inkscape:pageshadow="2"
     inkscape:window-width="3840"
     inkscape:window-height="2096"
     id="namedview142"
     showgrid="false"
     inkscape:zoom="1.6624329"
     inkscape:cx="163.94886"
     inkscape:cy="103.72558"
     inkscape:window-x="0"
     inkscape:window-y="27"
     inkscape:window-maximized="1"
     inkscape:current-layer="svg2" />
  <defs
     id="defs4" />
  <metadata
     id="metadata7">
    <rdf:RDF>
      <cc:Work
         rdf:about="">
        <dc:format>image/svg+xml</dc:format>
        <dc:type
           rdf:resource="http://purl.org/dc/dcmitype/StillImage" />
        <dc:title />
      </cc:Work>
    </rdf:RDF>
  </metadata>
  <path
     id="path3034"
     style="fill:#a21d5d;fill-opacity:1;fill-rule:nonzero;stroke:none;stroke-width:1.06666672"
     d="m 151.4225,48.755214 c -56.610937,0 -102.668371,46.057433 -102.668371,102.670526 0,56.61202 46.057434,102.66621 102.668371,102.66621 56.60985,0 102.66945,-46.05419 102.66945,-102.66621 0,-56.613093 -46.0596,-102.670526 -102.66945,-102.670526 m 0,243.427446 c -77.613127,0 -140.755842,-63.14271 -140.755842,-140.75692 0,-77.615282 63.142715,-140.759078 140.755842,-140.759078 77.61312,0 140.75584,63.143796 140.75584,140.759078 0,77.61421 -63.14272,140.75692 -140.75584,140.75692"
     inkscape:connector-curvature="0" />
  <path
     id="path3102"
     style="fill:#f68712;fill-opacity:1;stroke:none;stroke-width:1.06666672"
     d="M 59.222507,64.816256 C 3.22784,118.89092 34.510507,200.10826 34.510507,200.10826 l 18.601735,31.0785 c 48.213338,49.30134 116.494998,62.5358 157.622058,25.06901 41.12708,-37.4668 70.97907,-61.66302 68.64774,-86.3157 l -1.3611,-44.46267 C 266.09772,85.24741 229.64947,52.170358 229.64947,52.170358 L 187.00159,29.485316 c -6.83867,-3.224 -14.47242,-4.110393 -34.15908,-4.110393 v 0 c -26.704,0.0014 -61.388003,8.314666 -93.620003,39.441333"
     inkscape:connector-curvature="0"
     sodipodi:nodetypes="cccsccccccc" />
  <path
     id="path3206"
     style="fill:#a21d5d;fill-opacity:1;fill-rule:nonzero;stroke:none;stroke-width:1.06666672"
     d="m 250.19211,162.34212 c 0,0 -54.45067,5.52934 -92.336,65.512 0,0 -28.408,-10.26133 -56.81734,-5.52666 0,0 44.98,-83.66 149.15334,-59.98534"
     inkscape:connector-curvature="0" />
  <path
     inkscape:connector-curvature="0"
     id="path3270"
     style="fill:#a21d5d;fill-opacity:1;fill-rule:nonzero;stroke:none;stroke-width:1.06666672"
     d="m 225.72851,175.76266 c -43.54933,20.39466 -59.54933,81.96666 -63.59066,101.38266 60.44666,-5.112 108.896,-52.97733 114.86,-113.18533 -6.61334,-2.44267 -20.88134,-2.428 -51.26934,11.80267" />
  <path
     inkscape:connector-curvature="0"
     id="path3274"
     style="fill:#a21d5d;fill-opacity:1;fill-rule:nonzero;stroke:none;stroke-width:1.06666672"
     d="m 151.42251,277.63252 c 1.896,0 3.77066,-0.0613 5.644,-0.14133 v -1.496 c 0,0 6.316,-33.14533 -27.61734,-44.98933 -27.21466,-9.48934 -65.054663,-5.79067 -78.994663,-3.94934 23.044,30.68667 59.725333,50.576 100.968003,50.576" />
  <path
     inkscape:connector-curvature="0"
     id="path3278"
     style="fill:#ffffff;fill-opacity:1;fill-rule:nonzero;stroke:none;stroke-width:1.06666672"
     d="m 151.42251,26.722261 c -68.545337,0 -124.31067,55.764 -124.31067,124.310669 0,68.54533 55.765333,124.31333 124.31067,124.31333 68.54266,0 124.31333,-55.768 124.31333,-124.31333 0,-68.546669 -55.77067,-124.310669 -124.31333,-124.310669 m 0,254.450669 c -71.756003,0 -130.13867,-58.37734 -130.13867,-130.14 0,-71.757335 58.382667,-130.136002 130.13867,-130.136002 71.76133,0 130.13866,58.378667 130.13866,130.136002 0,71.76266 -58.37733,130.14 -130.13866,130.14" />
  <path
     inkscape:connector-curvature="0"
     id="path3402"
     style="fill:#ffffff;fill-opacity:1;fill-rule:nonzero;stroke:none;stroke-width:1.06666672"
     d="m 88.83264,150.36813 -10.790667,-22.82534 11.582667,-5.47866 -7.642667,-16.14934 -11.229333,5.316 -12.124,-25.627995 -11.961333,14.679995 9.816,19.84267 -5.670667,2.54 7.113333,13.81867 5.388,-2.828 c 0,0 6.922667,17.34666 17.477334,35.12533 10.56,17.776 33.270663,4.02267 33.270663,4.02267 l -7.144,-15.096 c -13.155997,5.79733 -18.08533,-7.34 -18.08533,-7.34" />
  <path
     inkscape:connector-curvature="0"
     id="path3406"
     style="fill:#ffffff;fill-opacity:1;fill-rule:nonzero;stroke:none;stroke-width:1.06666672"
     d="m 141.46157,144.14546 c -9.832,4.648 -21.99334,-0.45867 -27.18134,-11.416 -5.17866,-10.94533 -1.412,-23.59733 8.416,-28.244 9.828,-4.650665 22.00267,0.45733 27.18,11.408 5.17734,10.95733 1.41467,23.60267 -8.41466,28.252 M 115.9149,90.146795 c -16.937332,8.014666 -23.426665,29.802665 -14.49333,48.670665 8.92933,18.876 29.896,27.68267 46.82666,19.66933 16.93067,-8.01466 23.42267,-29.80533 14.49067,-48.67866 -8.92933,-18.870669 -29.89067,-27.676002 -46.824,-19.661335" />
  <path
     inkscape:connector-curvature="0"
     id="path3410"
     style="fill:#ffffff;fill-opacity:1;fill-rule:nonzero;stroke:none;stroke-width:1.06666672"
     d="m 213.2533,110.69373 c -9.836,4.648 -21.992,-0.45734 -27.176,-11.413335 -5.18,-10.949334 -1.416,-23.6 8.41067,-28.249334 9.83066,-4.645333 21.99866,0.462667 27.18133,11.412 5.18,10.954667 1.41467,23.599999 -8.416,28.250669 m 21.27733,-34.337335 c -8.92933,-18.868 -29.888,-27.674667 -46.832,-19.666667 -7.73333,3.658667 -13.24666,10.208 -16.156,18.025333 l -4.54666,-9.616 -11.95467,12.238667 46.788,98.884002 11.58533,-13.00667 -17.55866,-37.116 c 7.88266,2.71333 16.44666,2.59333 24.17866,-1.064 16.936,-8.01467 23.42534,-29.803999 14.496,-48.678665" />
  <path
     inkscape:connector-curvature="0"
     id="path3414"
     style="fill:#a21d5d;fill-opacity:1;fill-rule:nonzero;stroke:none;stroke-width:1.06666672"
     d="m 84.132235,149.31346 -10.796,-22.81733 11.582666,-5.48 -7.641333,-16.148 -11.225333,5.31733 -12.128,-25.630665 -11.964,14.68 9.822666,19.846665 -5.676,2.53733 7.112,13.82 5.394667,-2.83466 c 0,0 6.913333,17.35066 17.472,35.12666 10.558667,17.77467 33.265332,4.02267 33.265332,4.02267 l -7.13733,-15.09733 c -13.157335,5.79333 -18.081335,-7.34267 -18.081335,-7.34267" />
  <path
     inkscape:connector-curvature="0"
     id="path3418"
     style="fill:#a21d5d;fill-opacity:1;fill-rule:nonzero;stroke:none;stroke-width:1.06666672"
     d="m 136.75584,143.09866 c -9.828,4.64933 -21.99067,-0.456 -27.18,-11.41467 -5.17867,-10.94667 -1.41333,-23.59733 8.416,-28.248 9.828,-4.646667 22.00133,0.46267 27.17467,11.412 5.18533,10.95733 1.41333,23.6 -8.41067,28.25067 M 111.21051,89.095989 c -16.937337,8.017334 -23.425337,29.806671 -14.496003,48.668001 8.930663,18.888 29.897333,27.688 46.824003,19.67467 16.936,-8.012 23.42133,-29.80534 14.49333,-48.676 -8.928,-18.870671 -29.88667,-27.674671 -46.82133,-19.666671" />
  <path
     inkscape:connector-curvature="0"
     id="path3422"
     style="fill:#a21d5d;fill-opacity:1;fill-rule:nonzero;stroke:none;stroke-width:1.06666672"
     d="m 208.54357,109.64546 c -9.82533,4.652 -21.98933,-0.456 -27.16933,-11.410665 -5.18267,-10.950667 -1.416,-23.598667 8.41333,-28.250667 9.82134,-4.645333 21.99334,0.461333 27.172,11.412 5.18534,10.956 1.42267,23.604002 -8.416,28.249332 m 21.27867,-34.334665 c -8.91867,-18.869334 -29.884,-27.674667 -46.82533,-19.665334 -7.72934,3.66 -13.25067,10.210667 -16.15467,18.026667 l -4.55067,-9.621333 -11.95333,12.237333 46.78133,98.888002 11.58667,-13.01334 -17.55333,-37.11066 c 7.884,2.71466 16.444,2.596 24.17733,-1.06267 16.936,-8.01467 23.42267,-29.805332 14.492,-48.678665" />
</svg>
