<?xml version="1.0" encoding="UTF-8" standalone="no"?>
<svg
   xmlns:dc="http://purl.org/dc/elements/1.1/"
   xmlns:cc="http://creativecommons.org/ns#"
   xmlns:rdf="http://www.w3.org/1999/02/22-rdf-syntax-ns#"
   xmlns:svg="http://www.w3.org/2000/svg"
   xmlns="http://www.w3.org/2000/svg"
   version="1.1"
   id="svg2"
   height="761.59998"
   width="761.59998">
  <defs
     id="defs4" />
  <metadata
     id="metadata7">
    <rdf:RDF>
      <cc:Work
         rdf:about="">
        <dc:format>image/svg+xml</dc:format>
        <dc:type
           rdf:resource="http://purl.org/dc/dcmitype/StillImage" />
        <dc:title></dc:title>
      </cc:Work>
    </rdf:RDF>
  </metadata>
  <g
     transform="translate(-16.628309,-185.64197)"
     id="layer1">
    <path
       id="path3028"
       transform="translate(16.628309,185.64197)"
       d="M 260.61719,163.03906 C 146.96459,200.52352 64.927734,307.55428 64.927734,433.76367 c 0,157.41717 127.612126,285.02735 285.029296,285.02735 157.41717,0 285.02731,-127.61018 285.02735,-285.02735 0,-5.50475 -0.17256,-10.96881 -0.48047,-16.39648 C 620.08757,405.24713 604.8505,390.4242 589.11328,374.48242 541.4656,326.21539 488.89672,268.0502 450.30664,248.99023 409.78233,228.97491 340.43071,202.1255 285.01367,175.35156 c -8.51868,-4.11567 -16.67635,-8.2197 -24.39648,-12.3125 z m -1.30274,147.41602 c 32.40119,0 60.20675,19.65659 72.15235,47.69336 h 28.56836 c 11.94504,-28.03677 39.7492,-47.69336 72.15039,-47.69336 43.29697,0 78.39648,35.09951 78.39648,78.39648 0,43.29511 -35.09951,78.39258 -78.39648,78.39258 -43.29883,0 -78.39453,-35.09747 -78.39453,-78.39258 0,-6.75116 0.85436,-13.30217 2.45898,-19.55273 h -20.99805 c 1.60471,6.25056 2.45899,12.80157 2.45899,19.55273 0,43.29511 -35.09766,78.39258 -78.39649,78.39258 -43.29511,0 -78.39453,-35.09747 -78.39453,-78.39258 0,-43.29697 35.09942,-78.39648 78.39453,-78.39648 z m 28.47266,222.60156 c 0.21563,0.24351 22.05582,24.33008 58.28906,24.33008 35.91351,0 52.2875,-23.215 52.44922,-23.44922 l 15.31836,10.53125 c -0.88483,1.28634 -22.18419,31.50781 -67.76758,31.50781 -44.91977,0 -71.16098,-29.39946 -72.25586,-30.65234 z"
       style="fill:#02346d;fill-opacity:1;fill-rule:nonzero;stroke:none;stroke-width:1.85887742" />
    <g
       style="fill:#ffdd00;fill-opacity:1;stroke:#ffdd00;stroke-opacity:1"
       transform="matrix(1.7426975,0,0,-1.7426975,290.57268,549.36511)"
       id="g3034" />
    <g
       style="fill:#ffdd00;fill-opacity:1"
       transform="matrix(1.7426975,0,0,-1.7426975,354.33999,574.49341)"
       id="g3038" />
    <path
       id="path3522"
       d="m 231.43106,280.70315 c -30.65192,38.21649 159.85854,103.31297 240.27284,143.03031 80.4143,39.71733 203.55568,228.51575 248.41957,187.59232 44.86389,-40.92342 -67.5363,-145.88434 -63.7276,-224.86965 3.80873,-78.98532 -9.82012,-118.17804 -60.80036,-148.79719 -50.98025,-30.61915 -129.9695,-11.16767 -179.84539,20.64797 -49.87589,31.81565 -153.66715,-15.82024 -184.31906,22.39624 z"
       style="fill:#02346d;fill-opacity:1;stroke:none;stroke-width:12.80000019;stroke-linecap:butt;stroke-linejoin:miter;stroke-miterlimit:4;stroke-dasharray:none;stroke-opacity:1" />
    <g
       id="g4563">
      <g
         id="g3042"
         transform="matrix(1.7426975,0,0,-1.7426975,303.52126,574.49341)"
         style="fill:#02346d;fill-opacity:1">
        <path
           d="m 0,0 c 0,-8.7381333 -7.0858667,-15.822933 -15.825067,-15.822933 -8.7392,0 -15.824,7.0847997 -15.824,15.822933 0,8.7413333 7.0848,15.825067 15.824,15.825067 C -7.0858667,15.825067 0,8.7413333 0,0"
           style="fill:#02346d;fill-opacity:1;fill-rule:nonzero;stroke:none;stroke-width:1.06666672"
           id="path3044" />
      </g>
      <g
         id="g3050"
         transform="matrix(1.7426975,0,0,-1.7426975,475.20066,574.49341)"
         style="fill:#02346d;fill-opacity:1">
        <path
           d="m 0,0 c 0,-8.3605333 -6.7786667,-15.141333 -15.141333,-15.141333 -8.362667,0 -15.141334,6.7807997 -15.141334,15.141333 0,8.3626667 6.778667,15.1424 15.141334,15.1424 C -6.7786667,15.1424 0,8.3626667 0,0"
           style="fill:#02346d;fill-opacity:1;fill-rule:nonzero;stroke:none;stroke-width:1.06666672"
           id="path3052" />
      </g>
    </g>
    <g
       style="fill:#ffdd00;fill-opacity:1"
       transform="matrix(1.7426975,0,0,-1.7426975,362.70401,761.61841)"
       id="g3054" />
    <g
       id="text5134"
       style="font-style:normal;font-weight:normal;font-size:338.31439209px;line-height:1.25;font-family:sans-serif;letter-spacing:0px;word-spacing:0px;fill:#fb0909;fill-opacity:1;stroke:none;stroke-width:8.45785904"
       transform="rotate(35.437583)"
       aria-label="DEBUG">
      <path
         id="path824"
         style="font-style:normal;font-variant:normal;font-weight:normal;font-stretch:normal;font-family:'Yanone Kaffeesatz';-inkscape-font-specification:'Yanone Kaffeesatz';fill:#fb0909;stroke-width:8.45785904;fill-opacity:1"
         d="m 359.04736,108.6827 c -7.44292,0 -9.13449,2.3682 -9.13449,6.42798 v 230.3921 h 42.2893 c 41.61267,0 65.97131,-31.46324 65.97131,-130.58936 0,-82.2104 -21.99044,-106.23072 -66.30962,-106.23072 z m 67.66288,103.52421 c 0,93.71308 -16.57741,107.24566 -34.16975,107.24566 H 377.31634 V 134.05628 h 15.56246 c 22.66706,0 33.83144,15.56246 33.83144,78.15063 z" />
      <path
         id="path826"
         style="font-style:normal;font-variant:normal;font-weight:normal;font-stretch:normal;font-family:'Yanone Kaffeesatz';-inkscape-font-specification:'Yanone Kaffeesatz';fill:#fb0909;stroke-width:8.45785904;fill-opacity:1"
         d="m 510.46949,320.80583 v -91.34489 h 45.67244 c 5.07472,0 5.07472,-4.39809 5.07472,-25.37358 h -50.74716 v -70.70771 h 53.79198 c 5.07472,0 5.07472,-2.3682 5.07472,-24.69695 h -80.85714 c -5.41303,0 -5.75134,5.75135 -5.75134,5.75135 v 231.06873 h 80.18051 c 5.41303,0 5.41303,-1.69157 5.41303,-24.69695 z" />
      <path
         id="path828"
         style="font-style:normal;font-variant:normal;font-weight:normal;font-stretch:normal;font-family:'Yanone Kaffeesatz';-inkscape-font-specification:'Yanone Kaffeesatz';fill:#fb0909;stroke-width:8.45785904;fill-opacity:1"
         d="m 590.75571,345.50278 h 42.62761 c 35.1847,0 64.27974,-23.68201 64.27974,-80.51883 0,-40.59773 -24.35864,-48.37896 -39.9211,-49.3939 14.54752,-2.02989 32.47818,-17.25403 32.47818,-54.46862 0,-43.64255 -29.77167,-52.43873 -56.83682,-52.43873 H 599.8902 c -7.1046,0 -9.13449,2.3682 -9.13449,6.42798 z M 618.8358,133.04134 h 16.2391 c 12.85594,0 25.03526,5.75134 25.03526,33.49312 0,26.72684 -10.48775,38.90616 -24.69695,38.90616 H 618.8358 Z m 0,96.08129 h 15.56247 c 18.26897,0 31.12492,3.38314 31.12492,38.22952 0,38.56784 -14.54752,54.13031 -31.46324,54.13031 H 618.8358 Z" />
      <path
         id="path830"
         style="font-style:normal;font-variant:normal;font-weight:normal;font-stretch:normal;font-family:'Yanone Kaffeesatz';-inkscape-font-specification:'Yanone Kaffeesatz';fill:#fb0909;stroke-width:8.45785904;fill-opacity:1"
         d="m 746.70281,108.6827 c -28.41841,0 -28.41841,0 -28.41841,5.75135 v 162.05259 c 0,39.24447 6.76628,72.39928 60.89659,72.39928 26.72683,0 49.05558,-6.76629 57.51344,-12.17932 V 108.6827 c -27.40346,0 -27.74178,0 -27.74178,5.75135 v 202.98863 c -5.75134,3.04483 -17.93066,6.08966 -29.77166,6.08966 -28.41841,0 -32.47818,-18.9456 -32.47818,-46.34907 z" />
      <path
         id="path832"
         style="font-style:normal;font-variant:normal;font-weight:normal;font-stretch:normal;font-family:'Yanone Kaffeesatz';-inkscape-font-specification:'Yanone Kaffeesatz';fill:#fb0909;stroke-width:8.45785904;fill-opacity:1"
         d="m 933.28316,105.63787 c -44.6575,0 -72.39928,20.9755 -72.39928,126.8679 0,95.06634 18.26898,116.04184 63.6031,116.04184 23.3437,0 38.22953,-8.11955 46.01076,-14.88584 l 0.33832,-127.20621 h -44.31919 c -4.39809,0 -6.42797,2.02989 -6.42797,5.75135 v 17.59235 h 24.69695 v 83.90196 c -1.69157,2.70652 -7.78123,8.11955 -19.62224,8.11955 -21.99043,0 -34.84638,-10.82606 -34.84638,-91.00657 0,-75.78243 14.2092,-99.12612 48.71727,-99.12612 11.16438,0 20.9755,3.38315 26.72684,8.11955 2.02989,-5.07472 3.72146,-10.82606 3.72146,-17.25404 0,-8.79617 -13.53258,-16.91572 -36.19964,-16.91572 z" />
    </g>
  </g>
</svg>
