<?xml version="1.0" encoding="UTF-8" standalone="no"?>
<!-- Created with Inkscape (http://www.inkscape.org/) -->

<svg
   xmlns:dc="http://purl.org/dc/elements/1.1/"
   xmlns:cc="http://creativecommons.org/ns#"
   xmlns:rdf="http://www.w3.org/1999/02/22-rdf-syntax-ns#"
   xmlns:svg="http://www.w3.org/2000/svg"
   xmlns="http://www.w3.org/2000/svg"
   xmlns:sodipodi="http://sodipodi.sourceforge.net/DTD/sodipodi-0.dtd"
   xmlns:inkscape="http://www.inkscape.org/namespaces/inkscape"
   width="761.59998"
   height="761.59998"
   id="svg2"
   version="1.1"
   inkscape:version="0.92.1 r"
   sodipodi:docname="finderlein_logo_variants.svg"
   inkscape:export-filename="/home/roman/androiddev/finderlein_logo_512x512_bw.png"
   inkscape:export-xdpi="64.537819"
   inkscape:export-ydpi="64.537819">
  <defs
     id="defs4" />
  <sodipodi:namedview
     id="base"
     pagecolor="#ffffff"
     bordercolor="#666666"
     borderopacity="1.0"
     inkscape:pageopacity="0.0"
     inkscape:pageshadow="2"
     inkscape:zoom="0.35"
     inkscape:cx="378.22195"
     inkscape:cy="322.59092"
     inkscape:document-units="px"
     inkscape:current-layer="layer1"
     showgrid="false"
     inkscape:window-width="3840"
     inkscape:window-height="2096"
     inkscape:window-x="0"
     inkscape:window-y="27"
     inkscape:window-maximized="1"
     fit-margin-top="0"
     fit-margin-left="0"
     fit-margin-right="0"
     fit-margin-bottom="0" />
  <metadata
     id="metadata7">
    <rdf:RDF>
      <cc:Work
         rdf:about="">
        <dc:format>image/svg+xml</dc:format>
        <dc:type
           rdf:resource="http://purl.org/dc/dcmitype/StillImage" />
        <dc:title></dc:title>
      </cc:Work>
    </rdf:RDF>
  </metadata>
  <g
     inkscape:label="Ebene 1"
     inkscape:groupmode="layer"
     id="layer1"
     transform="translate(-16.628309,-185.64197)">
    <path
       style="fill:#004b80;fill-opacity:1;fill-rule:nonzero;stroke:#000000;stroke-width:21.99953842;stroke-linecap:round;stroke-linejoin:round;stroke-miterlimit:4;stroke-opacity:1"
       d="M -244.48434,-133.46361 H 1898.5446 V 1368.0415 H -244.48434 Z"
       inkscape:connector-curvature="0"
       id="path11" />
    <ellipse
       style="fill:#ffffff;fill-opacity:1;fill-rule:nonzero;stroke:none;stroke-width:1.17933762"
       id="path3824"
       cx="368.43076"
       cy="615.37317"
       rx="202.0305"
       ry="191.79428" />
    <path
       style="fill:#ececec;fill-opacity:1;fill-rule:nonzero;stroke:none;stroke-width:1.06666672"
       d="m 366.59498,334.37531 c -157.41717,0 -285.033337,127.61616 -285.033337,285.03333 0,157.41717 127.616167,285.03333 285.033337,285.03333 157.41717,0 285.03333,-127.61616 285.03333,-285.03333 0,-157.41717 -127.61616,-285.03333 -285.03333,-285.03333 z m -90.66667,161.73333 c 32.41084,0 60.22597,19.68223 72.16667,47.73333 h 28.56666 c 11.9407,-28.0511 39.75583,-47.73333 72.16667,-47.73333 43.29697,0 78.36667,35.10303 78.36667,78.4 0,43.29511 -35.0697,78.36667 -78.36667,78.36667 -43.29884,0 -78.4,-35.07156 -78.4,-78.36667 0,-6.81341 0.86638,-13.4306 2.5,-19.73333 h -21.1 c 1.63362,6.30273 2.5,12.91992 2.5,19.73333 0,43.29511 -35.10116,78.36667 -78.4,78.36667 -43.2951,0 -78.36667,-35.07156 -78.36667,-78.36667 0,-43.29697 35.07157,-78.4 78.36667,-78.4 z m 0,50.8 c -15.22978,0 -27.56667,12.3665 -27.56667,27.6 0,15.22793 12.33689,27.56667 27.56667,27.56667 15.22978,0 27.6,-12.33874 27.6,-27.56667 0,-15.2335 -12.37022,-27.6 -27.6,-27.6 z m 172.9,1.2 c -14.5736,0 -26.4,11.8264 -26.4,26.4 0,14.56988 11.8264,26.36667 26.4,26.36667 14.5736,0 26.36667,-11.79679 26.36667,-26.36667 0,-14.5736 -11.79307,-26.4 -26.36667,-26.4 z m -144.4,170.6 c 0,0 22.03343,24.33333 58.26667,24.33333 35.91351,0 52.30495,-23.23244 52.46666,-23.46666 l 15.3,10.53333 c -0.88482,1.28634 -22.18327,31.5 -67.76666,31.5 -44.91978,0 -71.13846,-29.38045 -72.23334,-30.63333 z"
       id="path3028"
       inkscape:connector-curvature="0" />
    <path
       style="fill:#ececec;fill-opacity:1;stroke:#ffffff;stroke-width:12.80000019;stroke-linecap:butt;stroke-linejoin:miter;stroke-miterlimit:4;stroke-dasharray:none;stroke-opacity:1"
       d="m 229.43106,286.70315 c -30.65192,38.21649 159.85854,103.31297 240.27284,143.03031 80.4143,39.71733 203.55568,228.51575 248.41957,187.59232 44.86389,-40.92342 -67.5363,-145.88434 -63.7276,-224.86965 3.80873,-78.98532 -9.82012,-118.17804 -60.80036,-148.79719 -50.98025,-30.61915 -129.9695,-11.16767 -179.84539,20.64797 -49.87589,31.81565 -153.66715,-15.82024 -184.31906,22.39624 z"
       inkscape:connector-curvature="0"
       sodipodi:nodetypes="zzzzzzz"
       id="path3522" />
    <g
       id="g3893"
       transform="matrix(0.73936334,0,0,0.73936334,283.07356,71.283281)">
      <path
         sodipodi:nodetypes="ssssccssssccsssssssssss"
         inkscape:connector-curvature="0"
         style="fill:#ffffff;fill-opacity:1;fill-rule:nonzero;stroke:none;stroke-width:1.06666672"
         d="m 1350.6522,602.15731 c -49.256,0 -89.1576,39.9368 -89.1576,89.19594 0,49.25714 39.9016,89.15828 89.1576,89.15828 49.2627,0 89.1975,-39.90114 89.1975,-89.15828 0,-7.75166 -0.9749,-15.27998 -2.8449,-22.4507 h 24.0065 c -1.8611,7.17072 -2.8449,14.69904 -2.8449,22.4507 0,49.25714 39.9348,89.15828 89.1953,89.15828 49.2605,0 89.1577,-39.90114 89.1577,-89.15828 0,-49.25914 -39.8972,-89.19594 -89.1577,-89.19594 -36.8727,0 -68.5188,22.39243 -82.103,54.30638 h -32.5014 c -13.5862,-31.91395 -45.2302,-54.30638 -82.1051,-54.30638 z m 0,57.79535 c 17.3285,0 31.4023,14.06936 31.4023,31.40059 0,17.32502 -14.0738,31.36292 -31.4023,31.36292 -17.3263,0 -31.3625,-14.0379 -31.3625,-31.36292 0,-17.33123 14.0362,-31.40059 31.3625,-31.40059 z m 196.7095,1.36484 c 16.5796,0 29.9977,13.45496 29.9977,30.03552 0,16.57614 -13.4181,29.99742 -29.9977,29.99742 -16.5797,0 -30.0353,-13.42128 -30.0353,-29.99742 0,-16.58056 13.4556,-30.03552 30.0353,-30.03552 z"
         id="path3872" />
      <g
         style="stroke:#ffffff;stroke-width:44.90000153;stroke-miterlimit:4;stroke-dasharray:none;stroke-opacity:1"
         id="g3887">
        <g
           id="g3879"
           style="stroke:#ffffff;stroke-width:40.23762894;stroke-miterlimit:4;stroke-dasharray:none;stroke-opacity:1"
           transform="matrix(1.1158709,0,0,1.1158709,-126.49647,-32.341125)">
          <path
             id="path3874"
             d="m 1310.9283,403.17531 c -118.4291,44.07335 -202.8,158.15263 -202.8,291.93333 0,171.97645 139.4235,311.39996 311.4001,311.39996 171.9764,0 311.3999,-139.42351 311.3999,-311.39996 0,-2.41957 -0.045,-4.82694 -0.1003,-7.23333 -58.4752,-35.9161 -146.7503,-155.97406 -209.5001,-186.96667 -53.6239,-26.48534 -155.235,-64.01739 -210.4,-97.73333 z"
             style="fill:none;stroke:#ffffff;stroke-width:42.92013931;stroke-miterlimit:4;stroke-dasharray:none;stroke-opacity:1"
             inkscape:connector-curvature="0" />
          <path
             id="path3522-3"
             sodipodi:nodetypes="zzzzzzz"
             inkscape:connector-curvature="0"
             d="m 1276.3701,355.09372 c -31.2517,38.96425 162.9865,105.33449 244.9742,145.82899 81.9879,40.49447 207.5388,232.98714 253.2804,191.26298 45.7418,-41.72416 -68.8577,-148.73891 -64.9746,-229.26972 3.8833,-80.53083 -10.0121,-120.49044 -61.9899,-151.70871 -51.9779,-31.21828 -132.5126,-11.38618 -183.3645,21.05198 -50.8518,32.4382 -156.6739,-16.1298 -187.9256,22.83448 z"
             style="fill:none;stroke:#ffffff;stroke-width:42.92013931;stroke-linecap:butt;stroke-linejoin:miter;stroke-miterlimit:4;stroke-dasharray:none;stroke-opacity:1" />
        </g>
        <path
           style="fill:none;stroke:#ffffff;stroke-width:47.89333344;stroke-linecap:round;stroke-linejoin:miter;stroke-miterlimit:4;stroke-dasharray:none;stroke-opacity:1"
           d="m 1375.1046,862.67054 c 0,0 23.5272,30.51145 71.4285,31.80953 47.9012,1.29808 70.4204,-32.32517 70.4204,-32.32517"
           id="path3885"
           inkscape:connector-curvature="0"
           sodipodi:nodetypes="czc" />
      </g>
    </g>
  </g>
</svg>
