<?xml version="1.0" encoding="UTF-8" standalone="no"?>
<!-- Created with Inkscape (http://www.inkscape.org/) -->

<svg
   xmlns:dc="http://purl.org/dc/elements/1.1/"
   xmlns:cc="http://creativecommons.org/ns#"
   xmlns:rdf="http://www.w3.org/1999/02/22-rdf-syntax-ns#"
   xmlns:svg="http://www.w3.org/2000/svg"
   xmlns="http://www.w3.org/2000/svg"
   xmlns:sodipodi="http://sodipodi.sourceforge.net/DTD/sodipodi-0.dtd"
   xmlns:inkscape="http://www.inkscape.org/namespaces/inkscape"
   width="512"
   height="512"
   viewBox="0 0 135.46667 135.46667"
   version="1.1"
   id="svg8"
   inkscape:version="0.92.1 r"
   sodipodi:docname="leaderboard_location.svg"
   inkscape:export-filename="/home/roman/Downloads/badge_2017_all.png"
   inkscape:export-xdpi="96"
   inkscape:export-ydpi="96">
  <defs
     id="defs2" />
  <sodipodi:namedview
     id="base"
     pagecolor="#ffffff"
     bordercolor="#666666"
     borderopacity="1.0"
     inkscape:pageopacity="0.0"
     inkscape:pageshadow="2"
     inkscape:zoom="1.4"
     inkscape:cx="41.59026"
     inkscape:cy="91.244319"
     inkscape:document-units="mm"
     inkscape:current-layer="layer1"
     showgrid="false"
     units="px"
     fit-margin-top="0"
     fit-margin-left="0"
     fit-margin-right="0"
     fit-margin-bottom="0"
     inkscape:window-width="2133"
     inkscape:window-height="2096"
     inkscape:window-x="0"
     inkscape:window-y="27"
     inkscape:window-maximized="0" />
  <metadata
     id="metadata5">
    <rdf:RDF>
      <cc:Work
         rdf:about="">
        <dc:format>image/svg+xml</dc:format>
        <dc:type
           rdf:resource="http://purl.org/dc/dcmitype/StillImage" />
        <dc:title></dc:title>
      </cc:Work>
    </rdf:RDF>
  </metadata>
  <g
     inkscape:label="Ebene 1"
     inkscape:groupmode="layer"
     id="layer1"
     transform="translate(-171.29147,-301.79385)">
    <path
       style="fill:#ffd900;fill-opacity:1;fill-rule:evenodd;stroke:#14316a;stroke-width:8.46500015;stroke-linecap:butt;stroke-linejoin:miter;stroke-miterlimit:4;stroke-dasharray:none;stroke-opacity:1"
       d="m 177.71706,349.57004 20.97768,82.77678 h 81.45387 l 20.22173,-86.55654 -32.12798,12.28422 -29.10417,-47.43601 -28.28435,47.80938 z"
       id="path33"
       inkscape:connector-curvature="0"
       sodipodi:nodetypes="cccccccc" />
    <text
       xml:space="preserve"
       style="font-style:normal;font-weight:normal;font-size:84.8770752px;line-height:53.048172px;font-family:sans-serif;letter-spacing:0px;word-spacing:0px;fill:#02346d;fill-opacity:1;stroke:none;stroke-width:2.12192702px;stroke-linecap:butt;stroke-linejoin:miter;stroke-opacity:1"
       x="219.54024"
       y="395.53174"
       id="text1020"
       transform="scale(0.99275546,1.0072974)"><tspan
         sodipodi:role="line"
         id="tspan1018"
         x="219.54024"
         y="444.10397"
         style="font-style:normal;font-variant:normal;font-weight:normal;font-stretch:normal;font-family:'Yanone Kaffeesatz';-inkscape-font-specification:'Yanone Kaffeesatz';fill:#02346d;fill-opacity:1;stroke-width:2.12192702px" /></text>
    <text
       xml:space="preserve"
       style="font-style:normal;font-weight:normal;font-size:30.32581139px;line-height:18.95363426px;font-family:sans-serif;letter-spacing:0px;word-spacing:0px;fill:#14316a;fill-opacity:1;stroke:none;stroke-width:0.75814527px;stroke-linecap:butt;stroke-linejoin:miter;stroke-opacity:1"
       x="209.41043"
       y="418.84613"
       id="text1016"
       transform="scale(0.99275546,1.0072974)"><tspan
         sodipodi:role="line"
         id="tspan1014"
         x="209.41043"
         y="418.84613"
         style="font-style:normal;font-variant:normal;font-weight:normal;font-stretch:normal;font-family:'Yanone Tagesschrift';-inkscape-font-specification:'Yanone Tagesschrift';fill:#14316a;fill-opacity:1;stroke-width:0.75814527px">2017</tspan></text>
    <g
       id="g1037"
       transform="matrix(0.07522518,0,0,0.0763271,258.31622,356.57294)">
      <g
         style="fill:#02346d;fill-opacity:1"
         transform="matrix(0.46108871,0,0,-0.46108871,302.54306,368.27659)"
         id="g3026">
        <path
           id="path3028"
           style="fill:#02346d;fill-opacity:1;fill-rule:nonzero;stroke:none;stroke-width:1.06666672"
           d="m 0,0 c 0,-90.3296 -73.2256,-163.5552 -163.5552,-163.5552 -90.3296,0 -163.55627,73.2256 -163.55627,163.5552 0,90.3296 73.22667,163.5552 163.55627,163.5552 C -73.2256,163.5552 0,90.3296 0,0"
           inkscape:connector-curvature="0" />
      </g>
      <g
         style="fill:#ffffff;fill-opacity:1;stroke:#fbfbfb;stroke-opacity:1"
         transform="matrix(0.46108871,0,0,-0.46108871,207.01797,349.74515)"
         id="g3034">
        <path
           id="path3036"
           style="fill:#ffffff;fill-opacity:1;stroke:#fbfbfb;stroke-width:6.4000001;stroke-linecap:butt;stroke-linejoin:miter;stroke-miterlimit:10;stroke-dasharray:none;stroke-opacity:1"
           d="M 0,0 H 75.882667"
           inkscape:connector-curvature="0" />
      </g>
      <g
         style="fill:#ffffff;fill-opacity:1"
         transform="matrix(0.46108871,0,0,-0.46108871,223.88973,356.39368)"
         id="g3038">
        <path
           id="path3040"
           style="fill:#ffffff;fill-opacity:1;fill-rule:nonzero;stroke:none;stroke-width:1.06666672"
           d="M 0,0 C 0,-24.843733 -20.1408,-44.983467 -44.986667,-44.983467 -69.8304,-44.983467 -89.9712,-24.843733 -89.9712,0 c 0,24.8448 20.1408,44.9856 44.984533,44.9856 C -20.1408,44.9856 0,24.8448 0,0"
           inkscape:connector-curvature="0" />
      </g>
      <g
         style="fill:#02346d;fill-opacity:1"
         transform="matrix(0.46108871,0,0,-0.46108871,210.44395,356.39368)"
         id="g3042">
        <path
           id="path3044"
           style="fill:#02346d;fill-opacity:1;fill-rule:nonzero;stroke:none;stroke-width:1.06666672"
           d="m 0,0 c 0,-8.7381333 -7.0858667,-15.822933 -15.825067,-15.822933 -8.7392,0 -15.824,7.0847997 -15.824,15.822933 0,8.7413333 7.0848,15.825067 15.824,15.825067 C -7.0858667,15.825067 0,8.7413333 0,0"
           inkscape:connector-curvature="0" />
      </g>
      <g
         style="fill:#ffffff;fill-opacity:1"
         transform="matrix(0.46108871,0,0,-0.46108871,269.62855,356.39368)"
         id="g3046">
        <path
           id="path3048"
           style="fill:#ffffff;fill-opacity:1;fill-rule:nonzero;stroke:none;stroke-width:1.06666672"
           d="m 0,0 c 0,-24.843733 -20.1408,-44.983467 -44.9856,-44.983467 -24.845867,0 -44.9856,20.139734 -44.9856,44.983467 0,24.8448 20.139733,44.9856 44.9856,44.9856 C -20.1408,44.9856 0,24.8448 0,0"
           inkscape:connector-curvature="0" />
      </g>
      <g
         style="fill:#02346d;fill-opacity:1"
         transform="matrix(0.46108871,0,0,-0.46108871,255.86745,356.39368)"
         id="g3050">
        <path
           id="path3052"
           style="fill:#02346d;fill-opacity:1;fill-rule:nonzero;stroke:none;stroke-width:1.06666672"
           d="m 0,0 c 0,-8.3605333 -6.7786667,-15.141333 -15.141333,-15.141333 -8.362667,0 -15.141334,6.7807997 -15.141334,15.141333 0,8.3626667 6.778667,15.1424 15.141334,15.1424 C -6.7786667,15.1424 0,8.3626667 0,0"
           inkscape:connector-curvature="0" />
      </g>
      <g
         style="fill:#ffffff;fill-opacity:1"
         transform="matrix(0.46108871,0,0,-0.46108871,226.10271,405.90384)"
         id="g3054">
        <path
           id="path3056"
           style="fill:#ffffff;fill-opacity:1;fill-rule:nonzero;stroke:none;stroke-width:1.06666672"
           d="m 0,0 c -25.776,0 -40.833067,16.8704 -41.461333,17.589333 l 8.013866,7.038934 c 0.123734,-0.139734 12.656,-13.9616 33.447467,-13.9616 20.608,0 30.004267,13.3216 30.097067,13.456 L 38.8864,18.08 C 38.378667,17.341867 26.1568,0 0,0"
           inkscape:connector-curvature="0" />
      </g>
      <path
         sodipodi:nodetypes="zzzzzzz"
         inkscape:connector-curvature="0"
         id="path3522"
         d="m 190.84091,280.24917 c -8.10998,10.11145 42.29591,27.33489 63.57219,37.84344 21.27629,10.50854 53.85744,60.46146 65.72768,49.6338 11.87024,-10.82765 -17.86898,-38.59856 -16.86126,-59.49676 1.00772,-20.8982 -2.59824,-31.26794 -16.08676,-39.36926 -13.48853,-8.10131 -34.38777,-2.95478 -47.5841,5.46311 -13.19632,8.41789 -40.65776,-4.18577 -48.76775,5.92567 z"
         style="fill:#02346d;fill-opacity:1;stroke:#ffffff;stroke-width:3.38666677;stroke-linecap:butt;stroke-linejoin:miter;stroke-miterlimit:4;stroke-dasharray:none;stroke-opacity:1" />
    </g>
    <path
       style="fill:#14316a;stroke-width:2.35920143;fill-opacity:1"
       inkscape:connector-curvature="0"
       d="m 238.57124,351.11344 c -9.13011,0 -16.51441,7.3843 -16.51441,16.51441 0,12.38581 16.51441,30.66962 16.51441,30.66962 0,0 16.51441,-18.28381 16.51441,-30.66962 0,-9.13011 -7.3843,-16.51441 -16.51441,-16.51441 z m 0,22.41242 c -3.2557,0 -5.89801,-2.64231 -5.89801,-5.89801 0,-3.2557 2.64231,-5.898 5.89801,-5.898 3.25569,0 5.898,2.6423 5.898,5.898 0,3.2557 -2.64231,5.89801 -5.898,5.89801 z"
       id="path920" />
    <path
       style="fill:none;stroke-width:2.35920143"
       inkscape:connector-curvature="0"
       d="m 210.26082,346.39504 h 56.62083 v 56.62083 h -56.62083 z"
       id="path922" />
  </g>
</svg>
