<?xml version="1.0" encoding="UTF-8" standalone="no"?>
<!-- Created with Inkscape (http://www.inkscape.org/) -->

<svg
   xmlns:dc="http://purl.org/dc/elements/1.1/"
   xmlns:cc="http://creativecommons.org/ns#"
   xmlns:rdf="http://www.w3.org/1999/02/22-rdf-syntax-ns#"
   xmlns:svg="http://www.w3.org/2000/svg"
   xmlns="http://www.w3.org/2000/svg"
   xmlns:sodipodi="http://sodipodi.sourceforge.net/DTD/sodipodi-0.dtd"
   xmlns:inkscape="http://www.inkscape.org/namespaces/inkscape"
   width="1600mm"
   height="900mm"
   viewBox="0 0 1600 900"
   version="1.1"
   id="svg8"
   inkscape:version="0.92.1 r"
   sodipodi:docname="photo_add_picture.svg"
   inkscape:export-filename="/home/roman/git/noefinderlein/app/src/main/res/mipmap/detail_photo_add_header.png"
   inkscape:export-xdpi="25.4"
   inkscape:export-ydpi="25.4">
  <defs
     id="defs2">
    <marker
       inkscape:stockid="Arrow2Mend"
       orient="auto"
       refY="0.0"
       refX="0.0"
       id="Arrow2Mend"
       style="overflow:visible;"
       inkscape:isstock="true">
      <path
         id="path4592"
         style="fill-rule:evenodd;stroke-width:0.625;stroke-linejoin:round;stroke:#ffffff;stroke-opacity:1;fill:#ffffff;fill-opacity:1"
         d="M 8.7185878,4.0337352 L -2.2072895,0.016013256 L 8.7185884,-4.0017078 C 6.9730900,-1.6296469 6.9831476,1.6157441 8.7185878,4.0337352 z "
         transform="scale(0.6) rotate(180) translate(0,0)" />
    </marker>
  </defs>
  <sodipodi:namedview
     id="base"
     pagecolor="#ffffff"
     bordercolor="#666666"
     borderopacity="1.0"
     inkscape:pageopacity="0.0"
     inkscape:pageshadow="2"
     inkscape:zoom="0.35"
     inkscape:cx="1778.9351"
     inkscape:cy="1063.4258"
     inkscape:document-units="mm"
     inkscape:current-layer="layer1"
     showgrid="false"
     inkscape:window-width="3840"
     inkscape:window-height="2096"
     inkscape:window-x="0"
     inkscape:window-y="27"
     inkscape:window-maximized="1" />
  <metadata
     id="metadata5">
    <rdf:RDF>
      <cc:Work
         rdf:about="">
        <dc:format>image/svg+xml</dc:format>
        <dc:type
           rdf:resource="http://purl.org/dc/dcmitype/StillImage" />
        <dc:title />
      </cc:Work>
    </rdf:RDF>
  </metadata>
  <g
     inkscape:label="Ebene 1"
     inkscape:groupmode="layer"
     id="layer1"
     transform="translate(0,603)">
    <g
       id="g4561"
       transform="matrix(1.4231953,0,0,1.4231953,-347.96908,71.958836)">
      <g
         transform="matrix(18.794947,0,0,18.794947,564.83665,-386.1788)"
         id="g4501"
         style="opacity:0.38000039;fill:#ffffff">
        <path
           sodipodi:nodetypes="cccccccccccccccccccssssssccsssss"
           style="fill:#ffffff"
           inkscape:connector-curvature="0"
           clip-path="url(#b)"
           d="M 3,4 V 1 H 5 V 4 H 8 V 6 H 5 V 9 H 3 V 6 H 0 V 4 Z m 3,6 V 7 H 9 V 4 h 7 l 1.83,2 H 21 c 1.1,0 2,0.9 2,2 v 12 c 0,1.1 -0.9,2 -2,2 H 5 C 3.9,22 3,21.1 3,20 V 10 Z m 7,9 c 2.76,0 5,-2.24 5,-5 0,-2.76 -2.24,-5 -5,-5 -2.76,0 -5,2.24 -5,5 0,2.76 2.24,5 5,5 z"
           id="path4491" />
      </g>
      <g
         style="opacity:0.38000039;fill:#ffffff"
         inkscape:label="Ebene 1"
         id="layer1-6"
         transform="matrix(0.28222221,0,0,0.28222221,720.39929,-251.02835)">
        <path
           id="path3522-3"
           style="color:#000000;font-style:normal;font-variant:normal;font-weight:normal;font-stretch:normal;font-size:medium;line-height:normal;font-family:sans-serif;text-indent:0;text-align:start;text-decoration:none;text-decoration-line:none;text-decoration-style:solid;text-decoration-color:#000000;letter-spacing:normal;word-spacing:normal;text-transform:none;writing-mode:lr-tb;direction:ltr;baseline-shift:baseline;text-anchor:start;white-space:normal;clip-rule:nonzero;display:inline;overflow:visible;visibility:visible;opacity:1;isolation:auto;mix-blend-mode:normal;color-interpolation:sRGB;color-interpolation-filters:linearRGB;solid-color:#000000;solid-opacity:1;fill:#ffffff;fill-opacity:1;fill-rule:nonzero;stroke:none;stroke-width:33.1974144;stroke-linecap:butt;stroke-linejoin:miter;stroke-miterlimit:4;stroke-dasharray:none;stroke-dashoffset:0;stroke-opacity:1;color-rendering:auto;image-rendering:auto;shape-rendering:auto;text-rendering:auto;enable-background:accumulate"
           d="m 396.68314,215.96834 c -5.62632,0.15073 -11.25942,0.697 -16.81998,1.55846 -22.24222,3.44583 -43.73597,11.99823 -60.93166,22.96726 -9.57701,6.10914 -31.19432,5.46219 -53.81806,3.48026 -11.31188,-0.99097 -22.72751,-2.00341 -33.7451,-0.95858 -11.01759,1.04484 -22.80052,4.48838 -30.68228,14.31531 -5.12284,9.01659 -5.32162,19.60433 -1.66012,25.34572 1.48266,2.31134 4.76452,6.0133 7.53683,9.32571 -64.96345,34.10087 -111.77813,103.41507 -111.77813,181.73413 0,112.39925 91.40403,203.80332 203.80333,203.80332 107.51058,0 195.75193,-83.643 203.22972,-189.2793 7.63885,1.10653 16.75144,-0.86809 23.04301,-6.60646 11.08603,-10.11231 12.34717,-25.80028 9.16527,-38.64467 -3.18191,-12.8444 -9.73592,-25.47257 -16.70866,-38.53028 -13.94549,-26.1154 -28.84469,-54.11398 -27.96888,-72.27691 1.23017,-25.51122 -0.15519,-45.79677 -7.05949,-63.23534 -6.90429,-17.43857 -19.664,-30.98466 -37.25473,-41.54979 -14.64979,-8.79879 -31.4721,-11.90102 -48.35107,-11.44884 z m 0.57361,26.30992 c 13.06404,-0.31161 25.02713,2.13013 34.24603,7.66709 14.23419,8.54917 21.64172,16.79548 26.3532,28.69554 4.71149,11.90008 6.39184,28.50057 5.24436,52.29672 -1.50174,31.14443 17.4929,60.56006 31.03479,85.91966 6.77095,12.6798 12.35859,24.30406 14.3818,32.47112 2.02319,8.16705 1.31619,11.09693 -1.36522,12.91145 -2.68138,1.81452 -9.67047,-3.30247 -12.28681,-4.95373 -0.69299,-0.44738 -1.43078,-0.97531 -2.15527,-1.47962 -1.52459,-1.05224 -3.12993,-2.24976 -4.78362,-3.53282 -1.28875,-1.00946 -2.56444,-1.99665 -3.92399,-3.13395 -0.31502,-0.26109 -0.65399,-0.56428 -0.97249,-0.83179 -9.06895,-7.68576 -19.53805,-17.89877 -30.52768,-29.04497 -0.0173,-0.0175 -0.0353,-0.0366 -0.0525,-0.0541 -19.26444,-19.77058 -39.33706,-41.94259 -59.54943,-58.5151 -0.15136,-0.12538 -0.30318,-0.25563 -0.45456,-0.38034 -2.04911,-1.67108 -4.09709,-3.25199 -6.14727,-4.79291 -1.80886,-1.37209 -3.61881,-2.66153 -5.4299,-3.91779 -1.5909,-1.09536 -3.18138,-2.23636 -4.77124,-3.23445 -0.5034,-0.3177 -1.00695,-0.62341 -1.51054,-0.93074 -2.57817,-1.56623 -5.15513,-3.04333 -7.72739,-4.31825 -0.0407,-0.0202 -0.0814,-0.0479 -0.12215,-0.0679 -6.35686,-3.13971 -13.8636,-6.54291 -21.75511,-10.04344 -0.41071,-0.18138 -0.81538,-0.36363 -1.22916,-0.54576 -28.93235,-12.79334 -65.06819,-27.44742 -90.95992,-40.94991 -1.20927,-0.63818 -2.28076,-1.25355 -3.44161,-1.8847 -2.73795,-1.47367 -5.32996,-2.92949 -7.76914,-4.36618 -5.71379,-3.36778 -10.61585,-6.56619 -14.02774,-9.35388 -1.83186,-1.49672 -3.97085,-2.50676 -3.12466,-4.24381 0.84621,-1.73706 4.26284,-1.99739 9.41882,-2.48635 7.48568,-0.70989 17.80221,-0.004 28.97231,0.9756 22.34018,1.95708 48.68533,6.24888 70.24378,-7.50321 13.93992,-8.8922 32.66894,-16.34231 50.82173,-19.1546 4.53821,-0.70306 9.01597,-1.11289 13.37065,-1.21677 z M 231.0452,309.6494 c 2.28641,1.30259 4.72346,2.5939 7.1507,3.88533 0.91625,0.49246 1.77978,0.98285 2.71495,1.47498 2.55511,1.32996 5.24885,2.66066 7.92992,3.98894 28.2239,14.12357 62.23124,27.84214 87.89404,39.16881 6.72596,2.98147 13.14308,5.86979 18.37536,8.45404 2.34216,1.15684 4.89212,2.72389 7.55731,4.52079 0.51876,0.34713 1.06689,0.75044 1.59711,1.11937 17.51011,12.29032 40.83242,36.2351 63.29873,59.1784 14.19983,14.73609 28.13392,28.93382 41.64565,39.67746 0.22819,0.1828 0.45543,0.35263 0.68337,0.5334 2.06063,1.62189 4.11525,3.18394 6.15656,4.62901 -1.36188,97.01342 -80.11802,174.98101 -177.46093,174.98101 -98.19608,0 -177.52434,-79.32829 -177.52434,-177.52433 0,-74.22139 45.50491,-137.51594 109.98157,-164.08721 z m 8.9086,86.63706 c -27.02679,0 -48.92157,21.91314 -48.92157,48.94168 0,27.02743 21.89477,48.92003 48.92157,48.92003 27.03051,0 48.9417,-21.8926 48.9417,-48.92003 0,-4.25334 -0.53397,-8.38471 -1.56002,-12.3193 h 13.1712 c -1.0212,3.93459 -1.56002,8.06596 -1.56002,12.3193 0,27.02743 21.91242,48.92003 48.94168,48.92003 27.02928,0 48.92004,-21.8926 48.92004,-48.92003 0,-27.02854 -21.89076,-48.94168 -48.92004,-48.94168 -20.23211,0 -37.59647,12.28669 -45.05015,29.79791 h -17.83422 c -7.45479,-17.51122 -24.81682,-29.79791 -45.05017,-29.79791 z m 0,31.71198 c 9.5082,0 17.22971,7.72004 17.22971,17.2297 0,9.50625 -7.72151,17.20805 -17.22971,17.20805 -9.50693,0 -17.20959,-7.7018 -17.20959,-17.20805 0,-9.50966 7.70266,-17.2297 17.20959,-17.2297 z m 107.93454,0.7483 c 9.09725,0 16.45974,7.38362 16.45974,16.4814 0,9.09534 -7.36249,16.45974 -16.45974,16.45974 -9.09731,0 -16.48138,-7.3644 -16.48138,-16.45974 0,-9.09778 7.38407,-16.4814 16.48138,-16.4814 z m -16.90965,96.90932 a 13.140872,13.140872 0 0 0 -10.69281,5.97877 c 0,0 -7.33739,12.45701 -27.36744,11.91421 -20.82642,-0.56439 -29.14238,-12.34249 -29.14237,-12.34249 a 13.140872,13.140872 0 1 0 -20.81046,16.04695 c 0,0 17.50115,21.70512 49.24163,22.56527 32.53684,0.88171 49.91262,-23.56098 49.91261,-23.56098 a 13.140872,13.140872 0 0 0 -11.14116,-20.60173 z"
           inkscape:connector-curvature="0" />
      </g>
    </g>
    <path
       style="opacity:0.38000039;fill:none;fill-rule:evenodd;stroke:#ffffff;stroke-width:38.86500168;stroke-linecap:butt;stroke-linejoin:round;stroke-miterlimit:4;stroke-dasharray:none;stroke-opacity:1;marker-end:url(#Arrow2Mend);paint-order:normal"
       d="m 1133.0246,-141.4524 302.3809,-3e-5 2.2679,356.80955"
       id="path4563"
       inkscape:connector-curvature="0"
       sodipodi:nodetypes="ccc" />
  </g>
</svg>
